<svg width="30" height="30" viewBox="0 0 30 30" fill="none" xmlns="http://www.w3.org/2000/svg">
<rect width="30" height="30" rx="15" fill="#001D3D"/>
<mask id="mask0_21_2" style="mask-type:alpha" maskUnits="userSpaceOnUse" x="4" y="4" width="22" height="22">
<rect x="4" y="4" width="22" height="22" rx="11" fill="#EDF2FB"/>
</mask>
<g mask="url(#mask0_21_2)">
<path d="M15 26C21.0751 26 26 21.0751 26 15C26 8.92487 21.0751 4 15 4C8.92487 4 4 8.92487 4 15C4 21.0751 8.92487 26 15 26Z" fill="#D80027"/>
<path d="M10.0199 10.6945L10.9695 13.6164H14.0418L11.5582 15.4254L12.5078 18.3473L10.0199 16.5426L7.53203 18.3473L8.48594 15.4254L5.99805 13.6164H9.07031L10.0199 10.6945Z" fill="#FFDA44"/>
<path d="M17.041 21.0371L16.3148 20.1434L15.2406 20.5602L15.8636 19.5934L15.1375 18.6953L16.2503 18.9918L16.8777 18.025L16.9378 19.1766L18.055 19.473L16.9765 19.8855L17.041 21.0371Z" fill="#FFDA44"/>
<path d="M18.4847 18.416L18.8285 17.316L17.8875 16.65L19.039 16.6328L19.3785 15.5328L19.7523 16.6242L20.9039 16.6113L19.98 17.2988L20.3496 18.3902L19.4085 17.7242L18.4847 18.416Z" fill="#FFDA44"/>
<path d="M20.4313 12.0738L19.9243 13.1094L20.7493 13.9129L19.6106 13.7496L19.1036 14.7809L18.9059 13.6465L17.7629 13.4832L18.7856 12.9461L18.5879 11.8074L19.4129 12.6109L20.4313 12.0738Z" fill="#FFDA44"/>
<path d="M17.0711 8.93711L16.9852 10.0844L18.0551 10.5184L16.9336 10.7934L16.852 11.9449L16.2461 10.9652L15.1246 11.2402L15.868 10.3594L15.2578 9.38398L16.3278 9.81797L17.0711 8.93711Z" fill="#FFDA44"/>
</g>
</svg>
