<svg width="30" height="30" viewBox="0 0 30 30" fill="none" xmlns="http://www.w3.org/2000/svg">
<rect width="30" height="30" rx="15" fill="#EDF2FB"/>
<mask id="mask0_21_492" style="mask-type:alpha" maskUnits="userSpaceOnUse" x="4" y="4" width="22" height="22">
<rect x="4" y="4" width="22" height="22" rx="11" fill="#EDF2FB"/>
</mask>
<g mask="url(#mask0_21_492)">
<path d="M15 26C21.0751 26 26 21.0751 26 15C26 8.92487 21.0751 4 15 4C8.92487 4 4 8.92487 4 15C4 21.0751 8.92487 26 15 26Z" fill="#D80027"/>
<path d="M10.0199 10.6945L10.9695 13.6164H14.0418L11.5582 15.4254L12.5078 18.3473L10.0199 16.5426L7.53203 18.3473L8.48594 15.4254L5.99805 13.6164H9.07031L10.0199 10.6945Z" fill="#FFDA44"/>
<path d="M17.0412 21.0371L16.315 20.1434L15.2408 20.5602L15.8639 19.5934L15.1377 18.6953L16.2506 18.9918L16.8779 18.025L16.9381 19.1766L18.0553 19.473L16.9768 19.8855L17.0412 21.0371Z" fill="#FFDA44"/>
<path d="M18.485 18.416L18.8287 17.316L17.8877 16.65L19.0393 16.6328L19.3787 15.5328L19.7525 16.6242L20.9041 16.6113L19.9803 17.2988L20.3498 18.3902L19.4088 17.7242L18.485 18.416Z" fill="#FFDA44"/>
<path d="M20.4311 12.0738L19.924 13.1094L20.749 13.9129L19.6104 13.7496L19.1033 14.7809L18.9057 13.6465L17.7627 13.4832L18.7854 12.9461L18.5877 11.8074L19.4127 12.6109L20.4311 12.0738Z" fill="#FFDA44"/>
<path d="M17.071 8.93711L16.9851 10.0844L18.055 10.5184L16.9335 10.7934L16.8519 11.9449L16.246 10.9652L15.1245 11.2402L15.8679 10.3594L15.2577 9.38398L16.3276 9.81797L17.071 8.93711Z" fill="#FFDA44"/>
</g>
</svg>
