<svg width="30" height="30" viewBox="0 0 30 30" fill="none" xmlns="http://www.w3.org/2000/svg">
<rect width="30" height="30" rx="15" fill="#001D3D"/>
<mask id="mask0_21_166" style="mask-type:alpha" maskUnits="userSpaceOnUse" x="4" y="4" width="22" height="22">
<rect x="4" y="4" width="22" height="22" rx="11" fill="#EDF2FB"/>
</mask>
<g mask="url(#mask0_21_166)">
<mask id="mask1_21_166" style="mask-type:alpha" maskUnits="userSpaceOnUse" x="0" y="4" width="30" height="22">
<rect x="0.333252" y="4" width="29.3333" height="22" fill="white"/>
</mask>
<g mask="url(#mask1_21_166)">
<path fill-rule="evenodd" clip-rule="evenodd" d="M0.333252 4V26H29.6666V4H0.333252Z" fill="#2E42A5"/>
<mask id="mask2_21_166" style="mask-type:alpha" maskUnits="userSpaceOnUse" x="0" y="4" width="30" height="22">
<path fill-rule="evenodd" clip-rule="evenodd" d="M0.333252 4V26H29.6666V4H0.333252Z" fill="white"/>
</mask>
<g mask="url(#mask2_21_166)">
<mask id="mask3_21_166" style="mask-type:alpha" maskUnits="userSpaceOnUse" x="0" y="4" width="30" height="22">
<rect x="0.333252" y="4" width="29.3333" height="22" fill="white"/>
</mask>
<g mask="url(#mask3_21_166)">
<path d="M-2.93311 24.4283L3.52178 27.1582L29.8129 6.96803L33.2177 2.91133L26.3151 1.99892L15.5916 10.6994L6.96029 16.5616L-2.93311 24.4283Z" fill="white"/>
<path d="M-2.04932 26.3409L1.23915 27.9251L31.9952 2.53442H27.3778L-2.04932 26.3409Z" fill="#F50100"/>
<path d="M32.9326 24.4283L26.4777 27.1582L0.1866 6.96803L-3.2182 2.91133L3.68436 1.99892L14.4079 10.6994L23.0392 16.5616L32.9326 24.4283Z" fill="white"/>
<path d="M32.7124 25.801L29.4239 27.3852L16.3277 16.5141L12.445 15.2995L-3.54578 2.92523H1.0716L17.0534 15.0058L21.2985 16.4622L32.7124 25.801Z" fill="#F50100"/>
<mask id="path-11-inside-1_21_166" fill="white">
<path fill-rule="evenodd" clip-rule="evenodd" d="M18.4629 2.16667H11.537V11.3333H-1.47485V18.6667H11.537V27.8333H18.4629V18.6667H31.5251V11.3333H18.4629V2.16667Z"/>
</mask>
<path fill-rule="evenodd" clip-rule="evenodd" d="M18.4629 2.16667H11.537V11.3333H-1.47485V18.6667H11.537V27.8333H18.4629V18.6667H31.5251V11.3333H18.4629V2.16667Z" fill="#F50100"/>
<path d="M11.537 2.16667V0.166666H9.53698V2.16667H11.537ZM18.4629 2.16667H20.4629V0.166666H18.4629V2.16667ZM11.537 11.3333V13.3333H13.537V11.3333H11.537ZM-1.47485 11.3333V9.33333H-3.47485V11.3333H-1.47485ZM-1.47485 18.6667H-3.47485V20.6667H-1.47485V18.6667ZM11.537 18.6667H13.537V16.6667H11.537V18.6667ZM11.537 27.8333H9.53698V29.8333H11.537V27.8333ZM18.4629 27.8333V29.8333H20.4629V27.8333H18.4629ZM18.4629 18.6667V16.6667H16.4629V18.6667H18.4629ZM31.5251 18.6667V20.6667H33.5251V18.6667H31.5251ZM31.5251 11.3333H33.5251V9.33333H31.5251V11.3333ZM18.4629 11.3333H16.4629V13.3333H18.4629V11.3333ZM11.537 4.16667H18.4629V0.166666H11.537V4.16667ZM13.537 11.3333V2.16667H9.53698V11.3333H13.537ZM-1.47485 13.3333H11.537V9.33333H-1.47485V13.3333ZM0.525146 18.6667V11.3333H-3.47485V18.6667H0.525146ZM11.537 16.6667H-1.47485V20.6667H11.537V16.6667ZM13.537 27.8333V18.6667H9.53698V27.8333H13.537ZM18.4629 25.8333H11.537V29.8333H18.4629V25.8333ZM16.4629 18.6667V27.8333H20.4629V18.6667H16.4629ZM31.5251 16.6667H18.4629V20.6667H31.5251V16.6667ZM29.5251 11.3333V18.6667H33.5251V11.3333H29.5251ZM18.4629 13.3333H31.5251V9.33333H18.4629V13.3333ZM16.4629 2.16667V11.3333H20.4629V2.16667H16.4629Z" fill="white" mask="url(#path-11-inside-1_21_166)"/>
</g>
</g>
</g>
</g>
</svg>
