<svg width="72" height="72" viewBox="0 0 72 72" fill="none" xmlns="http://www.w3.org/2000/svg">
<path d="M41.25 30.0001C42.0456 30.0001 42.8087 29.684 43.3713 29.1214C43.9339 28.5588 44.25 27.7957 44.25 27.0001C44.25 26.2044 43.9339 25.4414 43.3713 24.8788C42.8087 24.3162 42.0456 24.0001 41.25 24.0001C40.4543 24.0001 39.6913 24.3162 39.1287 24.8788C38.566 25.4414 38.25 26.2044 38.25 27.0001C38.25 27.7957 38.566 28.5588 39.1287 29.1214C39.6913 29.684 40.4543 30.0001 41.25 30.0001V30.0001ZM30.75 30.0001C31.5456 30.0001 32.3087 29.684 32.8713 29.1214C33.4339 28.5588 33.75 27.7957 33.75 27.0001C33.75 26.2044 33.4339 25.4414 32.8713 24.8788C32.3087 24.3162 31.5456 24.0001 30.75 24.0001C29.9543 24.0001 29.1913 24.3162 28.6287 24.8788C28.066 25.4414 27.75 26.2044 27.75 27.0001C27.75 27.7957 28.066 28.5588 28.6287 29.1214C29.1913 29.684 29.9543 30.0001 30.75 30.0001V30.0001ZM46.5 39.0001C47.2956 39.0001 48.0587 38.684 48.6213 38.1214C49.1839 37.5588 49.5 36.7957 49.5 36.0001C49.5 35.2044 49.1839 34.4414 48.6213 33.8788C48.0587 33.3162 47.2956 33.0001 46.5 33.0001C45.7043 33.0001 44.9413 33.3162 44.3787 33.8788C43.816 34.4414 43.5 35.2044 43.5 36.0001C43.5 36.7957 43.816 37.5588 44.3787 38.1214C44.9413 38.684 45.7043 39.0001 46.5 39.0001V39.0001ZM51.45 29.2501C52.0467 29.2501 52.619 29.013 53.041 28.5911C53.4629 28.1691 53.7 27.5968 53.7 27.0001C53.7 26.4034 53.4629 25.8311 53.041 25.4091C52.619 24.9872 52.0467 24.7501 51.45 24.7501C50.8532 24.7501 50.2809 24.9872 49.859 25.4091C49.437 25.8311 49.2 26.4034 49.2 27.0001C49.2 27.5968 49.437 28.1691 49.859 28.5911C50.2809 29.013 50.8532 29.2501 51.45 29.2501V29.2501ZM51.45 47.2501C52.0467 47.2501 52.619 47.013 53.041 46.5911C53.4629 46.1691 53.7 45.5968 53.7 45.0001C53.7 44.4034 53.4629 43.8311 53.041 43.4091C52.619 42.9872 52.0467 42.7501 51.45 42.7501C50.8532 42.7501 50.2809 42.9872 49.859 43.4091C49.437 43.8311 49.2 44.4034 49.2 45.0001C49.2 45.5968 49.437 46.1691 49.859 46.5911C50.2809 47.013 50.8532 47.2501 51.45 47.2501V47.2501ZM59.25 38.2501C59.8467 38.2501 60.419 38.013 60.841 37.5911C61.2629 37.1691 61.5 36.5968 61.5 36.0001C61.5 35.4034 61.2629 34.8311 60.841 34.4091C60.419 33.9872 59.8467 33.7501 59.25 33.7501C58.6532 33.7501 58.0809 33.9872 57.659 34.4091C57.237 34.8311 57 35.4034 57 36.0001C57 36.5968 57.237 37.1691 57.659 37.5911C58.0809 38.013 58.6532 38.2501 59.25 38.2501V38.2501ZM20.4 29.2501C20.9967 29.2501 21.569 29.013 21.991 28.5911C22.4129 28.1691 22.65 27.5968 22.65 27.0001C22.65 26.4034 22.4129 25.8311 21.991 25.4091C21.569 24.9872 20.9967 24.7501 20.4 24.7501C19.8032 24.7501 19.2309 24.9872 18.809 25.4091C18.387 25.8311 18.15 26.4034 18.15 27.0001C18.15 27.5968 18.387 28.1691 18.809 28.5911C19.2309 29.013 19.8032 29.2501 20.4 29.2501V29.2501ZM20.4 47.2501C20.9967 47.2501 21.569 47.013 21.991 46.5911C22.4129 46.1691 22.65 45.5968 22.65 45.0001C22.65 44.4034 22.4129 43.8311 21.991 43.4091C21.569 42.9872 20.9967 42.7501 20.4 42.7501C19.8032 42.7501 19.2309 42.9872 18.809 43.4091C18.387 43.8311 18.15 44.4034 18.15 45.0001C18.15 45.5968 18.387 46.1691 18.809 46.5911C19.2309 47.013 19.8032 47.2501 20.4 47.2501V47.2501ZM12.6 38.2501C13.1967 38.2501 13.769 38.013 14.191 37.5911C14.6129 37.1691 14.85 36.5968 14.85 36.0001C14.85 35.4034 14.6129 34.8311 14.191 34.4091C13.769 33.9872 13.1967 33.7501 12.6 33.7501C12.0032 33.7501 11.4309 33.9872 11.009 34.4091C10.587 34.8311 10.35 35.4034 10.35 36.0001C10.35 36.5968 10.587 37.1691 11.009 37.5911C11.4309 38.013 12.0032 38.2501 12.6 38.2501V38.2501ZM47.7 17.8501C48.2967 17.8501 48.869 17.613 49.291 17.1911C49.7129 16.7691 49.95 16.1968 49.95 15.6001C49.95 15.0034 49.7129 14.4311 49.291 14.0091C48.869 13.5872 48.2967 13.3501 47.7 13.3501C47.1032 13.3501 46.5309 13.5872 46.109 14.0091C45.687 14.4311 45.45 15.0034 45.45 15.6001C45.45 16.1968 45.687 16.7691 46.109 17.1911C46.5309 17.613 47.1032 17.8501 47.7 17.8501V17.8501ZM24.3 17.8501C24.8967 17.8501 25.469 17.613 25.891 17.1911C26.3129 16.7691 26.55 16.1968 26.55 15.6001C26.55 15.0034 26.3129 14.4311 25.891 14.0091C25.469 13.5872 24.8967 13.3501 24.3 13.3501C23.7032 13.3501 23.1309 13.5872 22.709 14.0091C22.287 14.4311 22.05 15.0034 22.05 15.6001C22.05 16.1968 22.287 16.7691 22.709 17.1911C23.1309 17.613 23.7032 17.8501 24.3 17.8501ZM36.15 20.2501C36.7467 20.2501 37.319 20.013 37.741 19.5911C38.1629 19.1691 38.4 18.5968 38.4 18.0001C38.4 17.4034 38.1629 16.8311 37.741 16.4091C37.319 15.9872 36.7467 15.7501 36.15 15.7501C35.5532 15.7501 34.9809 15.9872 34.559 16.4091C34.137 16.8311 33.9 17.4034 33.9 18.0001C33.9 18.5968 34.137 19.1691 34.559 19.5911C34.9809 20.013 35.5532 20.2501 36.15 20.2501ZM47.7 59.2501C48.2967 59.2501 48.869 59.013 49.291 58.5911C49.7129 58.1691 49.95 57.5968 49.95 57.0001C49.95 56.4034 49.7129 55.8311 49.291 55.4091C48.869 54.9871 48.2967 54.7501 47.7 54.7501C47.1032 54.7501 46.5309 54.9871 46.109 55.4091C45.687 55.8311 45.45 56.4034 45.45 57.0001C45.45 57.5968 45.687 58.1691 46.109 58.5911C46.5309 59.013 47.1032 59.2501 47.7 59.2501V59.2501ZM24.3 59.2501C24.8967 59.2501 25.469 59.013 25.891 58.5911C26.3129 58.1691 26.55 57.5968 26.55 57.0001C26.55 56.4034 26.3129 55.8311 25.891 55.4091C25.469 54.9871 24.8967 54.7501 24.3 54.7501C23.7032 54.7501 23.1309 54.9871 22.709 55.4091C22.287 55.8311 22.05 56.4034 22.05 57.0001C22.05 57.5968 22.287 58.1691 22.709 58.5911C23.1309 59.013 23.7032 59.2501 24.3 59.2501ZM36.15 56.8501C36.7467 56.8501 37.319 56.613 37.741 56.1911C38.1629 55.7691 38.4 55.1968 38.4 54.6001C38.4 54.0034 38.1629 53.4311 37.741 53.0091C37.319 52.5872 36.7467 52.3501 36.15 52.3501C35.5532 52.3501 34.9809 52.5872 34.559 53.0091C34.137 53.4311 33.9 54.0034 33.9 54.6001C33.9 55.1968 34.137 55.7691 34.559 56.1911C34.9809 56.613 35.5532 56.8501 36.15 56.8501ZM25.5 39.0001C26.2956 39.0001 27.0587 38.684 27.6213 38.1214C28.1839 37.5588 28.5 36.7957 28.5 36.0001C28.5 35.2044 28.1839 34.4414 27.6213 33.8788C27.0587 33.3162 26.2956 33.0001 25.5 33.0001C24.7043 33.0001 23.9413 33.3162 23.3787 33.8788C22.816 34.4414 22.5 35.2044 22.5 36.0001C22.5 36.7957 22.816 37.5588 23.3787 38.1214C23.9413 38.684 24.7043 39.0001 25.5 39.0001V39.0001ZM30.75 48.0001C31.5456 48.0001 32.3087 47.684 32.8713 47.1214C33.4339 46.5588 33.75 45.7957 33.75 45.0001C33.75 44.2044 33.4339 43.4414 32.8713 42.8788C32.3087 42.3162 31.5456 42.0001 30.75 42.0001C29.9543 42.0001 29.1913 42.3162 28.6287 42.8788C28.066 43.4414 27.75 44.2044 27.75 45.0001C27.75 45.7957 28.066 46.5588 28.6287 47.1214C29.1913 47.684 29.9543 48.0001 30.75 48.0001V48.0001ZM41.25 48.0001C42.0456 48.0001 42.8087 47.684 43.3713 47.1214C43.9339 46.5588 44.25 45.7957 44.25 45.0001C44.25 44.2044 43.9339 43.4414 43.3713 42.8788C42.8087 42.3162 42.0456 42.0001 41.25 42.0001C40.4543 42.0001 39.6913 42.3162 39.1287 42.8788C38.566 43.4414 38.25 44.2044 38.25 45.0001C38.25 45.7957 38.566 46.5588 39.1287 47.1214C39.6913 47.684 40.4543 48.0001 41.25 48.0001V48.0001Z" stroke="#233D5A" stroke-width="4" stroke-miterlimit="10"/>
</svg>
