<svg width="479" height="50" viewBox="0 0 479 50" fill="none" xmlns="http://www.w3.org/2000/svg">
<path d="M70.608 34.312C68.528 34.312 67.016 33.832 66.072 32.872C65.144 31.896 64.68 30.488 64.68 28.648V20.848H68.28V28.84C68.28 29.688 68.464 30.336 68.832 30.784C69.216 31.216 69.808 31.432 70.608 31.432C71.408 31.432 71.992 31.216 72.36 30.784C72.744 30.336 72.936 29.688 72.936 28.84V20.848H76.536V28.648C76.536 30.488 76.064 31.896 75.12 32.872C74.192 33.832 72.688 34.312 70.608 34.312ZM83.9229 34.312C82.9789 34.312 82.0269 34.208 81.0669 34C80.1229 33.792 79.2829 33.496 78.5469 33.112L79.5549 30.256C79.8749 30.432 80.2589 30.616 80.7069 30.808C81.1549 31 81.6429 31.16 82.1709 31.288C82.6989 31.416 83.2349 31.48 83.7789 31.48C84.4189 31.48 84.8989 31.392 85.2189 31.216C85.5549 31.024 85.7229 30.736 85.7229 30.352C85.7229 30.064 85.6109 29.832 85.3869 29.656C85.1789 29.464 84.8669 29.288 84.4509 29.128C84.0349 28.952 83.5389 28.768 82.9629 28.576C82.1149 28.272 81.3869 27.944 80.7789 27.592C80.1709 27.24 79.6989 26.808 79.3629 26.296C79.0429 25.784 78.8829 25.144 78.8829 24.376C78.8829 23.496 79.1069 22.776 79.5549 22.216C80.0029 21.656 80.6349 21.24 81.4509 20.968C82.2669 20.68 83.2189 20.536 84.3069 20.536C85.2029 20.536 86.0109 20.608 86.7309 20.752C87.4509 20.896 88.0109 21.08 88.4109 21.304V24.136C88.1389 24.008 87.7789 23.88 87.3309 23.752C86.8989 23.624 86.4269 23.52 85.9149 23.44C85.4189 23.344 84.9389 23.296 84.4749 23.296C83.8189 23.296 83.3229 23.384 82.9869 23.56C82.6509 23.736 82.4829 23.984 82.4829 24.304C82.4829 24.56 82.5949 24.776 82.8189 24.952C83.0589 25.128 83.4029 25.296 83.8509 25.456C84.2989 25.6 84.8349 25.784 85.4589 26.008C86.2909 26.296 86.9949 26.616 87.5709 26.968C88.1469 27.32 88.5789 27.752 88.8669 28.264C89.1709 28.776 89.3229 29.408 89.3229 30.16C89.3229 30.88 89.1549 31.56 88.8189 32.2C88.4989 32.824 87.9469 33.336 87.1629 33.736C86.3789 34.12 85.2989 34.312 83.9229 34.312ZM77.0661 19.024V17.512L79.4901 16.504H88.0581V19.024H77.0661ZM97.0168 34.312C95.5608 34.312 94.3768 34.096 93.4648 33.664C92.5688 33.216 91.9128 32.568 91.4968 31.72C91.0808 30.872 90.8728 29.832 90.8728 28.6V20.848H94.4488V28.792C94.4488 29.672 94.6488 30.336 95.0488 30.784C95.4648 31.232 96.1368 31.456 97.0648 31.456C97.9608 31.456 98.6008 31.248 98.9848 30.832C99.3688 30.4 99.5608 29.72 99.5608 28.792V20.848H103.137V28.6C103.137 29.832 102.929 30.872 102.513 31.72C102.097 32.568 101.441 33.216 100.545 33.664C99.6488 34.096 98.4728 34.312 97.0168 34.312ZM98.5528 28.768C97.8008 28.768 97.2008 28.648 96.7528 28.408C96.3208 28.152 96.0168 27.832 95.8408 27.448C95.6648 27.048 95.5768 26.648 95.5768 26.248C95.5768 25.96 95.6168 25.656 95.6968 25.336C95.7768 25.016 95.8968 24.76 96.0568 24.568L98.1928 25C98.1448 25.096 98.1048 25.208 98.0728 25.336C98.0568 25.448 98.0488 25.56 98.0488 25.672C98.0488 25.88 98.1128 26.064 98.2408 26.224C98.3688 26.368 98.5448 26.44 98.7688 26.44H104.529V28.768H98.5528ZM99.18 19.024C98.428 19.024 97.836 18.912 97.404 18.688C96.972 18.464 96.668 18.184 96.492 17.848C96.3 17.496 96.204 17.128 96.204 16.744C96.204 16.472 96.244 16.184 96.324 15.88C96.404 15.56 96.524 15.264 96.684 14.992L99.3 15.328C99.268 15.44 99.244 15.56 99.228 15.688C99.196 15.8 99.18 15.904 99.18 16C99.18 16.224 99.252 16.4 99.396 16.528C99.524 16.64 99.748 16.696 100.068 16.696H105.228V19.024H99.18ZM106.276 34V20.848H108.916L109.396 22.912H109.588C109.86 22.256 110.332 21.712 111.004 21.28C111.676 20.832 112.548 20.608 113.62 20.608C114.644 20.608 115.492 20.792 116.164 21.16C116.836 21.512 117.34 22.056 117.676 22.792C118.028 23.512 118.204 24.424 118.204 25.528V34H114.604V26.248C114.604 25.352 114.42 24.712 114.052 24.328C113.7 23.928 113.18 23.728 112.492 23.728C111.932 23.728 111.452 23.88 111.052 24.184C110.668 24.488 110.372 24.936 110.164 25.528C109.972 26.104 109.876 26.832 109.876 27.712V34H106.276ZM132.886 34V25.456C132.886 24.688 132.678 24.136 132.262 23.8C131.846 23.464 131.206 23.296 130.342 23.296C129.51 23.296 128.694 23.424 127.894 23.68C127.11 23.92 126.43 24.208 125.854 24.544V21.568C126.318 21.344 126.974 21.12 127.822 20.896C128.67 20.656 129.646 20.536 130.75 20.536C131.598 20.536 132.358 20.64 133.03 20.848C133.718 21.056 134.214 21.464 134.518 22.072C135.19 22.28 135.67 22.688 135.958 23.296C136.262 23.888 136.414 24.656 136.414 25.6V34H132.886ZM128.95 34.24C127.574 34.24 126.51 33.912 125.758 33.256C125.022 32.6 124.654 31.68 124.654 30.496C124.654 29.216 125.11 28.192 126.022 27.424C126.95 26.656 128.406 26.192 130.39 26.032L133.462 25.792V28.384L130.798 28.648C129.838 28.744 129.166 28.936 128.782 29.224C128.414 29.512 128.23 29.896 128.23 30.376C128.23 30.856 128.382 31.216 128.686 31.456C129.006 31.696 129.414 31.816 129.91 31.816C130.102 31.816 130.294 31.8 130.486 31.768C130.678 31.72 130.854 31.672 131.014 31.624L131.326 33.88C131.022 33.992 130.662 34.08 130.246 34.144C129.83 34.208 129.398 34.24 128.95 34.24ZM134.446 23.464L132.478 21.808C133.038 21.616 133.478 21.376 133.798 21.088C134.118 20.784 134.286 20.416 134.302 19.984H137.446C137.446 20.48 137.342 20.96 137.134 21.424C136.942 21.872 136.622 22.272 136.174 22.624C135.742 22.976 135.166 23.256 134.446 23.464ZM145.284 34.312C143.204 34.312 141.692 33.832 140.748 32.872C139.82 31.896 139.356 30.488 139.356 28.648V20.848H142.956V28.84C142.956 29.688 143.14 30.336 143.508 30.784C143.892 31.216 144.484 31.432 145.284 31.432C146.084 31.432 146.668 31.216 147.036 30.784C147.42 30.336 147.612 29.688 147.612 28.84V16.12H151.212V28.648C151.212 30.488 150.74 31.896 149.796 32.872C148.868 33.832 147.364 34.312 145.284 34.312ZM137.141 19.024V17.68L139.109 16.648H146.069V19.024H137.141ZM143.141 17.56V14.872H146.069V17.56H143.141ZM158.358 34.24C157.062 34.24 156.03 33.96 155.262 33.4C154.494 32.824 153.942 32.04 153.606 31.048C153.27 30.04 153.102 28.888 153.102 27.592C153.102 26.2 153.254 25.048 153.558 24.136C153.878 23.208 154.326 22.488 154.902 21.976C155.478 21.448 156.158 21.08 156.942 20.872C157.742 20.648 158.614 20.536 159.558 20.536C160.998 20.536 162.15 20.736 163.014 21.136C163.878 21.536 164.502 22.104 164.886 22.84C165.286 23.576 165.486 24.44 165.486 25.432V34H161.886V25.72C161.886 24.968 161.702 24.4 161.334 24.016C160.982 23.616 160.39 23.416 159.558 23.416C158.998 23.416 158.502 23.536 158.07 23.776C157.654 24 157.326 24.408 157.086 25C156.862 25.592 156.75 26.44 156.75 27.544C156.75 28.296 156.822 28.96 156.966 29.536C157.11 30.112 157.342 30.56 157.662 30.88C157.998 31.2 158.446 31.36 159.006 31.36C159.182 31.36 159.35 31.352 159.51 31.336C159.686 31.304 159.838 31.272 159.966 31.24L160.302 33.928C160.046 34.04 159.734 34.12 159.366 34.168C159.014 34.216 158.678 34.24 158.358 34.24ZM177.918 34.312C175.966 34.312 174.518 33.84 173.574 32.896C172.63 31.936 172.158 30.52 172.158 28.648C172.158 28.328 172.166 27.944 172.182 27.496C172.214 27.032 172.254 26.624 172.302 26.272H178.062V28.552H175.686V28.888C175.686 29.528 175.766 30.056 175.926 30.472C176.086 30.872 176.326 31.168 176.646 31.36C176.982 31.552 177.398 31.648 177.894 31.648C178.438 31.648 178.894 31.528 179.262 31.288C179.646 31.048 179.934 30.64 180.126 30.064C180.334 29.488 180.438 28.696 180.438 27.688C180.438 26.744 180.326 25.96 180.102 25.336C179.894 24.696 179.534 24.216 179.022 23.896C178.526 23.576 177.838 23.416 176.958 23.416C176.478 23.416 175.982 23.472 175.47 23.584C174.958 23.68 174.47 23.808 174.006 23.968C173.558 24.128 173.166 24.304 172.83 24.496V21.496C173.182 21.304 173.614 21.136 174.126 20.992C174.654 20.848 175.222 20.736 175.83 20.656C176.438 20.576 177.038 20.536 177.63 20.536C179.182 20.536 180.43 20.824 181.374 21.4C182.334 21.96 183.03 22.76 183.462 23.8C183.91 24.84 184.134 26.072 184.134 27.496C184.134 28.952 183.918 30.192 183.486 31.216C183.07 32.224 182.406 32.992 181.494 33.52C180.582 34.048 179.39 34.312 177.918 34.312ZM171.817 19.024V17.512L174.241 16.504H182.809V19.024H171.817ZM190.44 34.24C189.464 34.24 188.64 34.056 187.968 33.688C187.312 33.304 186.808 32.736 186.456 31.984C186.12 31.232 185.952 30.312 185.952 29.224V20.848H189.552V28.6C189.552 29.48 189.728 30.12 190.08 30.52C190.432 30.92 190.944 31.12 191.616 31.12C192.464 31.12 193.12 30.8 193.584 30.16C194.048 29.504 194.28 28.496 194.28 27.136V20.848H197.88V34H195.144L194.76 31.984H194.544C194.272 32.624 193.8 33.16 193.128 33.592C192.472 34.024 191.576 34.24 190.44 34.24ZM204.684 34.24C203.964 34.24 203.356 34.128 202.86 33.904C202.364 33.68 201.988 33.344 201.732 32.896C201.476 32.432 201.348 31.856 201.348 31.168V20.848H204.948V30.736C204.948 31.04 205.012 31.264 205.14 31.408C205.284 31.552 205.5 31.624 205.788 31.624C205.916 31.624 206.052 31.608 206.196 31.576C206.34 31.544 206.476 31.504 206.604 31.456L206.94 33.76C206.636 33.92 206.292 34.04 205.908 34.12C205.524 34.2 205.116 34.24 204.684 34.24ZM213.469 34.24C212.045 34.24 210.933 33.952 210.133 33.376C209.349 32.784 208.797 31.968 208.477 30.928C208.173 29.872 208.021 28.648 208.021 27.256C208.021 25.704 208.173 24.44 208.477 23.464C208.781 22.488 209.237 21.768 209.845 21.304C210.469 20.84 211.229 20.608 212.125 20.608C212.685 20.608 213.173 20.72 213.589 20.944C214.021 21.152 214.365 21.544 214.621 22.12H214.717C214.941 21.528 215.309 21.128 215.821 20.92C216.333 20.712 216.885 20.608 217.477 20.608C218.581 20.608 219.405 20.904 219.949 21.496C220.509 22.088 220.789 22.952 220.789 24.088V34H217.189V24.76C217.189 24.264 217.109 23.928 216.949 23.752C216.789 23.576 216.573 23.488 216.301 23.488C215.997 23.488 215.765 23.576 215.605 23.752C215.461 23.928 215.365 24.224 215.317 24.64H213.901C213.837 24.176 213.717 23.872 213.541 23.728C213.365 23.568 213.157 23.488 212.917 23.488C212.517 23.488 212.205 23.776 211.981 24.352C211.773 24.928 211.669 25.904 211.669 27.28C211.669 28.176 211.733 28.944 211.861 29.584C212.005 30.208 212.245 30.688 212.581 31.024C212.917 31.344 213.397 31.504 214.021 31.504C214.213 31.504 214.389 31.496 214.549 31.48C214.709 31.448 214.845 31.408 214.957 31.36L215.317 33.928C215.061 34.04 214.781 34.12 214.477 34.168C214.173 34.216 213.837 34.24 213.469 34.24ZM228.908 34.312C226.956 34.312 225.508 33.84 224.564 32.896C223.62 31.936 223.148 30.52 223.148 28.648C223.148 28.328 223.156 27.944 223.172 27.496C223.204 27.032 223.244 26.624 223.292 26.272H229.052V28.552H226.676V28.888C226.676 29.528 226.756 30.056 226.916 30.472C227.076 30.872 227.316 31.168 227.636 31.36C227.972 31.552 228.388 31.648 228.884 31.648C229.428 31.648 229.884 31.528 230.252 31.288C230.636 31.048 230.924 30.64 231.116 30.064C231.324 29.488 231.428 28.696 231.428 27.688C231.428 26.744 231.316 25.96 231.092 25.336C230.884 24.696 230.524 24.216 230.012 23.896C229.516 23.576 228.828 23.416 227.948 23.416C227.468 23.416 226.972 23.472 226.46 23.584C225.948 23.68 225.46 23.808 224.996 23.968C224.548 24.128 224.156 24.304 223.82 24.496V21.496C224.172 21.304 224.604 21.136 225.116 20.992C225.644 20.848 226.212 20.736 226.82 20.656C227.428 20.576 228.028 20.536 228.62 20.536C230.172 20.536 231.42 20.824 232.364 21.4C233.324 21.96 234.02 22.76 234.452 23.8C234.9 24.84 235.124 26.072 235.124 27.496C235.124 28.952 234.908 30.192 234.476 31.216C234.06 32.224 233.396 32.992 232.484 33.52C231.572 34.048 230.38 34.312 228.908 34.312ZM241.935 34.312C240.991 34.312 240.039 34.208 239.079 34C238.135 33.792 237.295 33.496 236.559 33.112L237.567 30.256C237.887 30.432 238.271 30.616 238.719 30.808C239.167 31 239.655 31.16 240.183 31.288C240.711 31.416 241.247 31.48 241.791 31.48C242.431 31.48 242.911 31.392 243.231 31.216C243.567 31.024 243.735 30.736 243.735 30.352C243.735 30.064 243.623 29.832 243.399 29.656C243.191 29.464 242.879 29.288 242.463 29.128C242.047 28.952 241.551 28.768 240.975 28.576C240.127 28.272 239.399 27.944 238.791 27.592C238.183 27.24 237.711 26.808 237.375 26.296C237.055 25.784 236.895 25.144 236.895 24.376C236.895 23.496 237.119 22.776 237.567 22.216C238.015 21.656 238.647 21.24 239.463 20.968C240.279 20.68 241.231 20.536 242.319 20.536C243.215 20.536 244.023 20.608 244.743 20.752C245.463 20.896 246.023 21.08 246.423 21.304V24.136C246.151 24.008 245.791 23.88 245.343 23.752C244.911 23.624 244.439 23.52 243.927 23.44C243.431 23.344 242.951 23.296 242.487 23.296C241.831 23.296 241.335 23.384 240.999 23.56C240.663 23.736 240.495 23.984 240.495 24.304C240.495 24.56 240.607 24.776 240.831 24.952C241.071 25.128 241.415 25.296 241.863 25.456C242.311 25.6 242.847 25.784 243.471 26.008C244.303 26.296 245.007 26.616 245.583 26.968C246.159 27.32 246.591 27.752 246.879 28.264C247.183 28.776 247.335 29.408 247.335 30.16C247.335 30.88 247.167 31.56 246.831 32.2C246.511 32.824 245.959 33.336 245.175 33.736C244.391 34.12 243.311 34.312 241.935 34.312ZM241.606 19.552C241.478 19.328 241.374 19.04 241.294 18.688C241.198 18.336 241.15 17.984 241.15 17.632C241.15 17.184 241.238 16.776 241.414 16.408C241.574 16.04 241.87 15.752 242.302 15.544C242.718 15.32 243.294 15.208 244.03 15.208H247.51V17.632H245.206C244.902 17.632 244.67 17.688 244.51 17.8C244.334 17.896 244.246 18.08 244.246 18.352C244.246 18.464 244.262 18.584 244.294 18.712C244.326 18.824 244.374 18.944 244.438 19.072L241.606 19.552ZM253.377 34V20.848H256.017L256.497 22.912H256.689C256.961 22.256 257.433 21.712 258.105 21.28C258.777 20.832 259.649 20.608 260.721 20.608C261.745 20.608 262.593 20.792 263.265 21.16C263.937 21.512 264.441 22.056 264.777 22.792C265.129 23.512 265.305 24.424 265.305 25.528V34H261.705V26.248C261.705 25.352 261.521 24.712 261.153 24.328C260.801 23.928 260.281 23.728 259.593 23.728C259.033 23.728 258.553 23.88 258.153 24.184C257.769 24.488 257.473 24.936 257.265 25.528C257.073 26.104 256.977 26.832 256.977 27.712V34H253.377ZM272.687 34.312C271.743 34.312 270.791 34.208 269.831 34C268.887 33.792 268.047 33.496 267.311 33.112L268.319 30.256C268.639 30.432 269.023 30.616 269.471 30.808C269.919 31 270.407 31.16 270.935 31.288C271.463 31.416 271.999 31.48 272.543 31.48C273.183 31.48 273.663 31.392 273.983 31.216C274.319 31.024 274.487 30.736 274.487 30.352C274.487 30.064 274.375 29.832 274.151 29.656C273.943 29.464 273.631 29.288 273.215 29.128C272.799 28.952 272.303 28.768 271.727 28.576C270.879 28.272 270.151 27.944 269.543 27.592C268.935 27.24 268.463 26.808 268.127 26.296C267.807 25.784 267.647 25.144 267.647 24.376C267.647 23.496 267.871 22.776 268.319 22.216C268.767 21.656 269.399 21.24 270.215 20.968C271.031 20.68 271.983 20.536 273.071 20.536C273.967 20.536 274.775 20.608 275.495 20.752C276.215 20.896 276.775 21.08 277.175 21.304V24.136C276.903 24.008 276.543 23.88 276.095 23.752C275.663 23.624 275.191 23.52 274.679 23.44C274.183 23.344 273.703 23.296 273.239 23.296C272.583 23.296 272.087 23.384 271.751 23.56C271.415 23.736 271.247 23.984 271.247 24.304C271.247 24.56 271.359 24.776 271.583 24.952C271.823 25.128 272.167 25.296 272.615 25.456C273.063 25.6 273.599 25.784 274.223 26.008C275.055 26.296 275.759 26.616 276.335 26.968C276.911 27.32 277.343 27.752 277.631 28.264C277.935 28.776 278.087 29.408 278.087 30.16C278.087 30.88 277.919 31.56 277.583 32.2C277.263 32.824 276.711 33.336 275.927 33.736C275.143 34.12 274.063 34.312 272.687 34.312ZM283.597 34V25.312C283.597 24.64 283.437 24.152 283.117 23.848C282.813 23.544 282.309 23.392 281.605 23.392C281.077 23.392 280.589 23.464 280.141 23.608C279.709 23.752 279.301 23.928 278.917 24.136V21.256C279.269 21.096 279.765 20.936 280.405 20.776C281.045 20.616 281.797 20.536 282.661 20.536C283.541 20.536 284.317 20.664 284.989 20.92C285.677 21.176 286.213 21.608 286.597 22.216C286.997 22.808 287.197 23.624 287.197 24.664V34H283.597ZM294.554 34.24C293.578 34.24 292.754 34.056 292.082 33.688C291.426 33.304 290.922 32.736 290.57 31.984C290.234 31.232 290.066 30.312 290.066 29.224V20.848H293.666V28.6C293.666 29.48 293.842 30.12 294.194 30.52C294.546 30.92 295.058 31.12 295.73 31.12C296.578 31.12 297.234 30.8 297.698 30.16C298.162 29.504 298.394 28.496 298.394 27.136V20.848H301.994V34H299.258L298.874 31.984H298.658C298.386 32.624 297.914 33.16 297.242 33.592C296.586 34.024 295.69 34.24 294.554 34.24ZM312.59 34V25.456C312.59 24.688 312.382 24.136 311.966 23.8C311.55 23.464 310.91 23.296 310.046 23.296C309.214 23.296 308.398 23.424 307.598 23.68C306.814 23.92 306.134 24.208 305.558 24.544V21.568C306.022 21.344 306.678 21.12 307.526 20.896C308.374 20.656 309.35 20.536 310.454 20.536C311.302 20.536 312.062 20.64 312.734 20.848C313.422 21.056 313.918 21.464 314.222 22.072C314.894 22.28 315.374 22.688 315.662 23.296C315.966 23.888 316.118 24.656 316.118 25.6V34H312.59ZM308.654 34.24C307.278 34.24 306.214 33.912 305.462 33.256C304.726 32.6 304.358 31.68 304.358 30.496C304.358 29.216 304.814 28.192 305.726 27.424C306.654 26.656 308.11 26.192 310.094 26.032L313.166 25.792V28.384L310.502 28.648C309.542 28.744 308.87 28.936 308.486 29.224C308.118 29.512 307.934 29.896 307.934 30.376C307.934 30.856 308.086 31.216 308.39 31.456C308.71 31.696 309.118 31.816 309.614 31.816C309.806 31.816 309.998 31.8 310.19 31.768C310.382 31.72 310.558 31.672 310.718 31.624L311.03 33.88C310.726 33.992 310.366 34.08 309.95 34.144C309.534 34.208 309.102 34.24 308.654 34.24ZM314.15 23.464L312.182 21.808C312.742 21.616 313.182 21.376 313.502 21.088C313.822 20.784 313.99 20.416 314.006 19.984H317.15C317.15 20.48 317.046 20.96 316.838 21.424C316.646 21.872 316.326 22.272 315.878 22.624C315.446 22.976 314.87 23.256 314.15 23.464ZM324.987 34.312C322.907 34.312 321.395 33.832 320.451 32.872C319.523 31.896 319.059 30.488 319.059 28.648V20.848H322.659V28.84C322.659 29.688 322.843 30.336 323.211 30.784C323.595 31.216 324.187 31.432 324.987 31.432C325.787 31.432 326.371 31.216 326.739 30.784C327.123 30.336 327.315 29.688 327.315 28.84V16.12H330.915V28.648C330.915 30.488 330.443 31.896 329.499 32.872C328.571 33.832 327.067 34.312 324.987 34.312ZM339.046 34.312C337.094 34.312 335.646 33.84 334.702 32.896C333.758 31.936 333.286 30.52 333.286 28.648C333.286 28.328 333.294 27.944 333.31 27.496C333.342 27.032 333.382 26.624 333.43 26.272H339.19V28.552H336.814V28.888C336.814 29.528 336.894 30.056 337.054 30.472C337.214 30.872 337.454 31.168 337.774 31.36C338.11 31.552 338.526 31.648 339.022 31.648C339.566 31.648 340.022 31.528 340.39 31.288C340.774 31.048 341.062 30.64 341.254 30.064C341.462 29.488 341.566 28.696 341.566 27.688C341.566 26.744 341.454 25.96 341.23 25.336C341.022 24.696 340.662 24.216 340.15 23.896C339.654 23.576 338.966 23.416 338.086 23.416C337.606 23.416 337.11 23.472 336.598 23.584C336.086 23.68 335.598 23.808 335.134 23.968C334.686 24.128 334.294 24.304 333.958 24.496V21.496C334.31 21.304 334.742 21.136 335.254 20.992C335.782 20.848 336.35 20.736 336.958 20.656C337.566 20.576 338.166 20.536 338.758 20.536C340.31 20.536 341.558 20.824 342.502 21.4C343.462 21.96 344.158 22.76 344.59 23.8C345.038 24.84 345.262 26.072 345.262 27.496C345.262 28.952 345.046 30.192 344.614 31.216C344.198 32.224 343.534 32.992 342.622 33.52C341.71 34.048 340.518 34.312 339.046 34.312ZM352.072 34.312C351.128 34.312 350.176 34.208 349.216 34C348.272 33.792 347.432 33.496 346.696 33.112L347.704 30.256C348.024 30.432 348.408 30.616 348.856 30.808C349.304 31 349.792 31.16 350.32 31.288C350.848 31.416 351.384 31.48 351.928 31.48C352.568 31.48 353.048 31.392 353.368 31.216C353.704 31.024 353.872 30.736 353.872 30.352C353.872 30.064 353.76 29.832 353.536 29.656C353.328 29.464 353.016 29.288 352.6 29.128C352.184 28.952 351.688 28.768 351.112 28.576C350.264 28.272 349.536 27.944 348.928 27.592C348.32 27.24 347.848 26.808 347.512 26.296C347.192 25.784 347.032 25.144 347.032 24.376C347.032 23.496 347.256 22.776 347.704 22.216C348.152 21.656 348.784 21.24 349.6 20.968C350.416 20.68 351.368 20.536 352.456 20.536C353.352 20.536 354.16 20.608 354.88 20.752C355.6 20.896 356.16 21.08 356.56 21.304V24.136C356.288 24.008 355.928 23.88 355.48 23.752C355.048 23.624 354.576 23.52 354.064 23.44C353.568 23.344 353.088 23.296 352.624 23.296C351.968 23.296 351.472 23.384 351.136 23.56C350.8 23.736 350.632 23.984 350.632 24.304C350.632 24.56 350.744 24.776 350.968 24.952C351.208 25.128 351.552 25.296 352 25.456C352.448 25.6 352.984 25.784 353.608 26.008C354.44 26.296 355.144 26.616 355.72 26.968C356.296 27.32 356.728 27.752 357.016 28.264C357.32 28.776 357.472 29.408 357.472 30.16C357.472 30.88 357.304 31.56 356.968 32.2C356.648 32.824 356.096 33.336 355.312 33.736C354.528 34.12 353.448 34.312 352.072 34.312ZM351.743 19.552C351.615 19.328 351.511 19.04 351.431 18.688C351.335 18.336 351.287 17.984 351.287 17.632C351.287 17.184 351.375 16.776 351.551 16.408C351.711 16.04 352.007 15.752 352.439 15.544C352.855 15.32 353.431 15.208 354.167 15.208H357.647V17.632H355.343C355.039 17.632 354.807 17.688 354.647 17.8C354.471 17.896 354.383 18.08 354.383 18.352C354.383 18.464 354.399 18.584 354.431 18.712C354.463 18.824 354.511 18.944 354.575 19.072L351.743 19.552ZM364.038 34.24C362.614 34.24 361.502 33.952 360.702 33.376C359.918 32.784 359.366 31.968 359.046 30.928C358.742 29.872 358.59 28.648 358.59 27.256C358.59 25.704 358.742 24.44 359.046 23.464C359.35 22.488 359.806 21.768 360.414 21.304C361.038 20.84 361.798 20.608 362.694 20.608C363.254 20.608 363.742 20.72 364.158 20.944C364.59 21.152 364.934 21.544 365.19 22.12H365.286C365.51 21.528 365.878 21.128 366.39 20.92C366.902 20.712 367.454 20.608 368.046 20.608C369.15 20.608 369.974 20.904 370.518 21.496C371.078 22.088 371.358 22.952 371.358 24.088V34H367.758V24.76C367.758 24.264 367.678 23.928 367.518 23.752C367.358 23.576 367.142 23.488 366.87 23.488C366.566 23.488 366.334 23.576 366.174 23.752C366.03 23.928 365.934 24.224 365.886 24.64H364.47C364.406 24.176 364.286 23.872 364.11 23.728C363.934 23.568 363.726 23.488 363.486 23.488C363.086 23.488 362.774 23.776 362.55 24.352C362.342 24.928 362.238 25.904 362.238 27.28C362.238 28.176 362.302 28.944 362.43 29.584C362.574 30.208 362.814 30.688 363.15 31.024C363.486 31.344 363.966 31.504 364.59 31.504C364.782 31.504 364.958 31.496 365.118 31.48C365.278 31.448 365.414 31.408 365.526 31.36L365.886 33.928C365.63 34.04 365.35 34.12 365.046 34.168C364.742 34.216 364.406 34.24 364.038 34.24ZM379.65 34V28.48H378.282V26.272H382.89V31.264H383.058C383.586 31.264 384.034 31.12 384.402 30.832C384.786 30.544 385.074 30.12 385.266 29.56C385.458 28.984 385.554 28.264 385.554 27.4C385.554 26.408 385.41 25.624 385.122 25.048C384.85 24.456 384.442 24.032 383.898 23.776C383.354 23.52 382.682 23.392 381.882 23.392C381.05 23.392 380.298 23.512 379.626 23.752C378.954 23.976 378.354 24.248 377.826 24.568V21.568C378.354 21.296 379.018 21.056 379.818 20.848C380.618 20.64 381.538 20.536 382.578 20.536C384.13 20.536 385.386 20.784 386.346 21.28C387.322 21.776 388.042 22.528 388.506 23.536C388.97 24.544 389.202 25.808 389.202 27.328C389.202 28.752 388.986 29.968 388.554 30.976C388.138 31.968 387.45 32.72 386.49 33.232C385.546 33.744 384.282 34 382.698 34H379.65ZM385.636 19.552C384.724 19.552 383.996 19.344 383.452 18.928C382.908 18.512 382.636 17.928 382.636 17.176C382.636 16.424 382.908 15.84 383.452 15.424C383.996 15.008 384.724 14.8 385.636 14.8C386.548 14.8 387.284 15.008 387.844 15.424C388.388 15.84 388.66 16.424 388.66 17.176C388.66 17.928 388.388 18.512 387.844 18.928C387.284 19.344 386.548 19.552 385.636 19.552ZM385.636 18.16C385.988 18.16 386.26 18.072 386.452 17.896C386.644 17.72 386.74 17.48 386.74 17.176C386.74 16.872 386.644 16.632 386.452 16.456C386.26 16.28 385.988 16.192 385.636 16.192C385.3 16.192 385.036 16.28 384.844 16.456C384.652 16.632 384.556 16.872 384.556 17.176C384.556 17.48 384.652 17.72 384.844 17.896C385.036 18.072 385.3 18.16 385.636 18.16ZM394.496 34V25.312C394.496 24.64 394.336 24.152 394.016 23.848C393.712 23.544 393.208 23.392 392.504 23.392C391.976 23.392 391.488 23.464 391.04 23.608C390.608 23.752 390.2 23.928 389.816 24.136V21.256C390.168 21.096 390.664 20.936 391.304 20.776C391.944 20.616 392.696 20.536 393.56 20.536C394.44 20.536 395.216 20.664 395.888 20.92C396.576 21.176 397.112 21.608 397.496 22.216C397.896 22.808 398.096 23.624 398.096 24.664V34H394.496ZM400.846 34V29.992C400.846 28.984 401.046 28.208 401.446 27.664C401.846 27.12 402.414 26.736 403.15 26.512L403.174 26.416L400.606 25.48V24.856C400.606 24.072 400.838 23.352 401.302 22.696C401.766 22.04 402.446 21.52 403.342 21.136C404.254 20.736 405.358 20.536 406.654 20.536C407.87 20.536 408.918 20.728 409.798 21.112C410.678 21.48 411.358 22.04 411.838 22.792C412.334 23.528 412.582 24.464 412.582 25.6V34H408.982V25.816C408.982 25.016 408.766 24.416 408.334 24.016C407.918 23.616 407.326 23.416 406.558 23.416C405.822 23.416 405.27 23.576 404.902 23.896C404.534 24.2 404.334 24.576 404.302 25.024L406.438 26.008L406.174 27.568C405.598 27.6 405.166 27.808 404.878 28.192C404.59 28.576 404.446 29.096 404.446 29.752V34H400.846ZM408.218 19.024C407.466 19.024 406.874 18.912 406.442 18.688C406.01 18.464 405.706 18.184 405.53 17.848C405.338 17.496 405.242 17.128 405.242 16.744C405.242 16.472 405.282 16.184 405.362 15.88C405.442 15.56 405.562 15.264 405.722 14.992L408.338 15.328C408.306 15.44 408.282 15.56 408.266 15.688C408.234 15.8 408.218 15.904 408.218 16C408.218 16.224 408.29 16.4 408.434 16.528C408.562 16.64 408.786 16.696 409.106 16.696H414.266V19.024H408.218ZM419.71 34.24C418.414 34.24 417.382 33.96 416.614 33.4C415.846 32.824 415.294 32.04 414.958 31.048C414.622 30.04 414.454 28.888 414.454 27.592C414.454 26.2 414.606 25.048 414.91 24.136C415.23 23.208 415.678 22.488 416.254 21.976C416.83 21.448 417.51 21.08 418.294 20.872C419.094 20.648 419.966 20.536 420.91 20.536C422.35 20.536 423.502 20.736 424.366 21.136C425.23 21.536 425.854 22.104 426.238 22.84C426.638 23.576 426.838 24.44 426.838 25.432V34H423.238V25.72C423.238 24.968 423.054 24.4 422.686 24.016C422.334 23.616 421.742 23.416 420.91 23.416C420.35 23.416 419.854 23.536 419.422 23.776C419.006 24 418.678 24.408 418.438 25C418.214 25.592 418.102 26.44 418.102 27.544C418.102 28.296 418.174 28.96 418.318 29.536C418.462 30.112 418.694 30.56 419.014 30.88C419.35 31.2 419.798 31.36 420.358 31.36C420.534 31.36 420.702 31.352 420.862 31.336C421.038 31.304 421.19 31.272 421.318 31.24L421.654 33.928C421.398 34.04 421.086 34.12 420.718 34.168C420.366 34.216 420.03 34.24 419.71 34.24Z" fill="white"/>
<path d="M37.972 6V3.572H37.04V3.12H39.386V3.572H38.454V6H37.972ZM39.6258 6V3.12H40.0598L41.0558 5.16L42.0518 3.12H42.4858V6H42.0358V4.154L41.1518 6H40.9598L40.0778 4.154V6H39.6258Z" fill="white"/>
<path d="M22.4122 31.9052C22.5017 32.0253 22.449 32.205 22.3053 32.2441C22.2844 32.25 22.2661 32.2514 22.2482 32.2475C20.8109 31.9345 19.3572 31.6796 17.9455 31.2744C16.0132 30.7197 14.0935 30.1054 12.2061 29.4116C10.7089 28.8613 9.22078 28.2451 7.814 27.4946C5.3779 26.1953 3.21377 24.5449 1.65988 22.1669C0.56668 20.4936 -0.0929156 18.6943 0.0106452 16.6992C0.0963007 15.0517 0.639753 13.5053 1.54325 12.1103C2.07121 11.2954 2.56192 10.4472 3.16489 9.69136C4.5799 7.91695 6.29204 6.4521 8.24905 5.33541C9.71584 4.49849 11.2465 3.73628 12.8251 3.14986C14.5508 2.50826 16.3558 2.07369 18.1425 1.61226C19.5246 1.25533 20.9222 0.93355 22.3304 0.71187C23.6791 0.499468 25.0487 0.399859 26.4128 0.314898C28.6752 0.174761 30.941 -0.00639135 33.2043 -4.36969e-05C35.4454 0.00630396 37.6855 0.221636 39.9256 0.352007C40.1961 0.369097 40.2823 0.725542 40.0519 0.869585C39.9842 0.912066 39.9227 0.943804 39.8578 0.963335C38.3557 1.41988 36.8154 1.76998 35.3486 2.32125C31.7937 3.65767 28.2005 4.93013 24.919 6.89058C23.3447 7.83101 21.7845 8.83345 20.3662 9.99214C18.249 11.7221 16.4725 13.7915 15.5849 16.4565C15.0149 18.1689 15.0008 19.9389 15.3991 21.7168C16.0422 24.5859 17.5715 26.9502 19.5023 29.0712" fill="#EDF2FB"/>
<path d="M20.5879 18.0947C20.4983 17.9746 20.5511 17.7949 20.6948 17.7559C20.7156 17.75 20.734 17.7485 20.7519 17.7524C22.1892 18.0654 23.6429 18.3203 25.0545 18.7256C26.9868 19.2803 28.9066 19.8945 30.7939 20.5884C32.2912 21.1387 33.7793 21.7549 35.1861 22.5054C37.6222 23.8047 39.7863 25.4551 41.3402 27.833C42.4334 29.5059 43.093 31.3052 42.9894 33.3003C42.9038 34.9478 42.3603 36.4941 41.4568 37.8892C40.9288 38.7041 40.4381 39.5522 39.8352 40.3081C38.4202 42.0825 36.708 43.5474 34.751 44.6641C33.2842 45.501 31.7535 46.2632 30.175 46.8496C28.4493 47.4912 26.6442 47.9258 24.8576 48.3872C23.4755 48.7441 22.0779 49.0659 20.6696 49.2876C19.3209 49.5 17.9514 49.5996 16.5872 49.6846C14.3248 49.8252 12.0596 50.0063 9.79575 50C7.55468 49.9937 5.31457 49.7783 3.07446 49.6479C2.80394 49.6309 2.7178 49.2744 2.94815 49.1304C3.0159 49.0879 3.07736 49.0562 3.14221 49.0366C4.64433 48.5801 6.18467 48.23 7.65146 47.6787C11.2064 46.3423 14.7996 45.0698 18.0811 43.1094C19.6553 42.1689 21.2155 41.1665 22.6339 40.0078C24.7511 38.2778 26.5276 36.2085 27.4151 33.5435C27.9852 31.8311 27.9992 30.061 27.601 28.2832C26.9578 25.4141 25.4286 23.0498 23.4977 20.9287" fill="#EDF2FB"/>
</svg>
