<svg width="401" height="50" viewBox="0 0 401 50" fill="none" xmlns="http://www.w3.org/2000/svg">
<path d="M71.076 25.36C69.812 25.36 68.672 25.14 67.656 24.7C66.648 24.26 65.816 23.632 65.16 22.816C64.512 21.992 64.1 21.016 63.924 19.888L66.924 19.432C67.18 20.456 67.704 21.248 68.496 21.808C69.296 22.368 70.216 22.648 71.256 22.648C71.872 22.648 72.452 22.552 72.996 22.36C73.54 22.168 73.98 21.888 74.316 21.52C74.66 21.152 74.832 20.7 74.832 20.164C74.832 19.924 74.792 19.704 74.712 19.504C74.632 19.296 74.512 19.112 74.352 18.952C74.2 18.792 74 18.648 73.752 18.52C73.512 18.384 73.232 18.268 72.912 18.172L68.448 16.852C68.064 16.74 67.648 16.592 67.2 16.408C66.76 16.216 66.34 15.956 65.94 15.628C65.548 15.292 65.224 14.868 64.968 14.356C64.72 13.836 64.596 13.196 64.596 12.436C64.596 11.324 64.876 10.392 65.436 9.64C66.004 8.88 66.764 8.312 67.716 7.936C68.676 7.56 69.74 7.376 70.908 7.384C72.092 7.392 73.148 7.596 74.076 7.996C75.004 8.388 75.78 8.96 76.404 9.712C77.028 10.464 77.468 11.372 77.724 12.436L74.616 12.976C74.488 12.368 74.24 11.852 73.872 11.428C73.512 10.996 73.068 10.668 72.54 10.444C72.02 10.22 71.464 10.1 70.872 10.084C70.296 10.076 69.76 10.164 69.264 10.348C68.776 10.524 68.38 10.78 68.076 11.116C67.78 11.452 67.632 11.844 67.632 12.292C67.632 12.716 67.76 13.064 68.016 13.336C68.272 13.6 68.588 13.812 68.964 13.972C69.348 14.124 69.736 14.252 70.128 14.356L73.224 15.22C73.648 15.332 74.124 15.484 74.652 15.676C75.18 15.868 75.688 16.136 76.176 16.48C76.664 16.824 77.064 17.276 77.376 17.836C77.696 18.396 77.856 19.108 77.856 19.972C77.856 20.868 77.668 21.656 77.292 22.336C76.924 23.008 76.424 23.568 75.792 24.016C75.16 24.464 74.436 24.8 73.62 25.024C72.812 25.248 71.964 25.36 71.076 25.36ZM86.2014 25.36C84.9374 25.36 83.8774 25.06 83.0214 24.46C82.1654 23.86 81.5214 23.044 81.0894 22.012C80.6574 20.972 80.4414 19.808 80.4414 18.52C80.4414 17.216 80.6574 16.048 81.0894 15.016C81.5214 13.984 82.1534 13.172 82.9854 12.58C83.8254 11.98 84.8614 11.68 86.0934 11.68C87.3174 11.68 88.3774 11.98 89.2734 12.58C90.1774 13.172 90.8774 13.984 91.3734 15.016C91.8694 16.04 92.1174 17.208 92.1174 18.52C92.1174 19.816 91.8734 20.98 91.3854 22.012C90.8974 23.044 90.2094 23.86 89.3214 24.46C88.4334 25.06 87.3934 25.36 86.2014 25.36ZM79.9494 30.76V12.04H82.5054V21.136H82.8654V30.76H79.9494ZM85.7574 22.768C86.5094 22.768 87.1294 22.58 87.6174 22.204C88.1054 21.828 88.4654 21.32 88.6974 20.68C88.9374 20.032 89.0574 19.312 89.0574 18.52C89.0574 17.736 88.9374 17.024 88.6974 16.384C88.4574 15.736 88.0854 15.224 87.5814 14.848C87.0774 14.464 86.4374 14.272 85.6614 14.272C84.9254 14.272 84.3254 14.452 83.8614 14.812C83.3974 15.164 83.0534 15.66 82.8294 16.3C82.6134 16.932 82.5054 17.672 82.5054 18.52C82.5054 19.36 82.6134 20.1 82.8294 20.74C83.0534 21.38 83.4014 21.88 83.8734 22.24C84.3534 22.592 84.9814 22.768 85.7574 22.768ZM100.175 25.36C98.8625 25.36 97.7105 25.076 96.7185 24.508C95.7265 23.94 94.9505 23.152 94.3905 22.144C93.8385 21.136 93.5625 19.976 93.5625 18.664C93.5625 17.248 93.8345 16.02 94.3785 14.98C94.9225 13.932 95.6785 13.12 96.6465 12.544C97.6145 11.968 98.7345 11.68 100.007 11.68C101.351 11.68 102.491 11.996 103.427 12.628C104.371 13.252 105.071 14.136 105.527 15.28C105.983 16.424 106.155 17.772 106.043 19.324H103.175V18.268C103.167 16.86 102.919 15.832 102.431 15.184C101.943 14.536 101.175 14.212 100.127 14.212C98.9425 14.212 98.0625 14.58 97.4865 15.316C96.9105 16.044 96.6225 17.112 96.6225 18.52C96.6225 19.832 96.9105 20.848 97.4865 21.568C98.0625 22.288 98.9025 22.648 100.007 22.648C100.719 22.648 101.331 22.492 101.843 22.18C102.363 21.86 102.763 21.4 103.043 20.8L105.899 21.664C105.403 22.832 104.635 23.74 103.595 24.388C102.563 25.036 101.423 25.36 100.175 25.36ZM95.7105 19.324V17.14H104.627V19.324H95.7105ZM114.132 25.36C112.82 25.36 111.668 25.076 110.676 24.508C109.684 23.94 108.908 23.152 108.348 22.144C107.796 21.136 107.52 19.976 107.52 18.664C107.52 17.248 107.792 16.02 108.336 14.98C108.88 13.932 109.636 13.12 110.604 12.544C111.572 11.968 112.692 11.68 113.964 11.68C115.308 11.68 116.448 11.996 117.384 12.628C118.328 13.252 119.028 14.136 119.484 15.28C119.94 16.424 120.112 17.772 120 19.324H117.132V18.268C117.124 16.86 116.876 15.832 116.388 15.184C115.9 14.536 115.132 14.212 114.084 14.212C112.9 14.212 112.02 14.58 111.444 15.316C110.868 16.044 110.58 17.112 110.58 18.52C110.58 19.832 110.868 20.848 111.444 21.568C112.02 22.288 112.86 22.648 113.964 22.648C114.676 22.648 115.288 22.492 115.8 22.18C116.32 21.86 116.72 21.4 117 20.8L119.856 21.664C119.36 22.832 118.592 23.74 117.552 24.388C116.52 25.036 115.38 25.36 114.132 25.36ZM109.668 19.324V17.14H118.584V19.324H109.668ZM127.394 25.36C126.202 25.36 125.162 25.06 124.274 24.46C123.386 23.86 122.698 23.044 122.21 22.012C121.722 20.98 121.478 19.816 121.478 18.52C121.478 17.208 121.722 16.04 122.21 15.016C122.706 13.984 123.406 13.172 124.31 12.58C125.214 11.98 126.278 11.68 127.502 11.68C128.734 11.68 129.766 11.98 130.598 12.58C131.438 13.172 132.074 13.984 132.506 15.016C132.938 16.048 133.154 17.216 133.154 18.52C133.154 19.808 132.938 20.972 132.506 22.012C132.074 23.044 131.43 23.86 130.574 24.46C129.718 25.06 128.658 25.36 127.394 25.36ZM127.838 22.768C128.614 22.768 129.238 22.592 129.71 22.24C130.19 21.88 130.538 21.38 130.754 20.74C130.978 20.1 131.09 19.36 131.09 18.52C131.09 17.672 130.978 16.932 130.754 16.3C130.538 15.66 130.198 15.164 129.734 14.812C129.27 14.452 128.67 14.272 127.934 14.272C127.158 14.272 126.518 14.464 126.014 14.848C125.51 15.224 125.138 15.736 124.898 16.384C124.658 17.024 124.538 17.736 124.538 18.52C124.538 19.312 124.654 20.032 124.886 20.68C125.126 21.32 125.49 21.828 125.978 22.204C126.466 22.58 127.086 22.768 127.838 22.768ZM131.09 25V15.904H130.73V7.72H133.646V25H131.09ZM141.095 25V7.72H143.987V25H141.095ZM156.065 25V18.76C156.065 18.352 156.037 17.9 155.981 17.404C155.925 16.908 155.793 16.432 155.585 15.976C155.385 15.512 155.081 15.132 154.673 14.836C154.273 14.54 153.729 14.392 153.041 14.392C152.673 14.392 152.309 14.452 151.949 14.572C151.589 14.692 151.261 14.9 150.965 15.196C150.677 15.484 150.445 15.884 150.269 16.396C150.093 16.9 150.005 17.548 150.005 18.34L148.289 17.608C148.289 16.504 148.501 15.504 148.925 14.608C149.357 13.712 149.989 13 150.821 12.472C151.653 11.936 152.677 11.668 153.893 11.668C154.853 11.668 155.645 11.828 156.269 12.148C156.893 12.468 157.389 12.876 157.757 13.372C158.125 13.868 158.397 14.396 158.573 14.956C158.749 15.516 158.861 16.048 158.909 16.552C158.965 17.048 158.993 17.452 158.993 17.764V25H156.065ZM147.077 25V12.04H149.657V16.06H150.005V25H147.077ZM169.241 25C168.385 25.16 167.545 25.228 166.721 25.204C165.905 25.188 165.173 25.04 164.525 24.76C163.877 24.472 163.385 24.02 163.049 23.404C162.753 22.844 162.597 22.272 162.581 21.688C162.565 21.104 162.557 20.444 162.557 19.708V8.44H165.437V19.54C165.437 20.06 165.441 20.516 165.449 20.908C165.465 21.3 165.549 21.62 165.701 21.868C165.989 22.348 166.449 22.616 167.081 22.672C167.713 22.728 168.433 22.696 169.241 22.576V25ZM160.205 14.308V12.04H169.241V14.308H160.205ZM176.783 25.36C175.471 25.36 174.319 25.076 173.327 24.508C172.335 23.94 171.559 23.152 170.999 22.144C170.447 21.136 170.171 19.976 170.171 18.664C170.171 17.248 170.443 16.02 170.987 14.98C171.531 13.932 172.287 13.12 173.255 12.544C174.223 11.968 175.343 11.68 176.615 11.68C177.959 11.68 179.099 11.996 180.035 12.628C180.979 13.252 181.679 14.136 182.135 15.28C182.591 16.424 182.763 17.772 182.651 19.324H179.783V18.268C179.775 16.86 179.527 15.832 179.039 15.184C178.551 14.536 177.783 14.212 176.735 14.212C175.551 14.212 174.671 14.58 174.095 15.316C173.519 16.044 173.231 17.112 173.231 18.52C173.231 19.832 173.519 20.848 174.095 21.568C174.671 22.288 175.511 22.648 176.615 22.648C177.327 22.648 177.939 22.492 178.451 22.18C178.971 21.86 179.371 21.4 179.651 20.8L182.507 21.664C182.011 22.832 181.243 23.74 180.203 24.388C179.171 25.036 178.031 25.36 176.783 25.36ZM172.319 19.324V17.14H181.235V19.324H172.319ZM184.849 25V12.04H187.405V15.196L187.093 14.788C187.253 14.356 187.465 13.964 187.729 13.612C188.001 13.252 188.325 12.956 188.701 12.724C189.021 12.508 189.373 12.34 189.757 12.22C190.149 12.092 190.549 12.016 190.957 11.992C191.365 11.96 191.761 11.976 192.145 12.04V14.74C191.761 14.628 191.317 14.592 190.813 14.632C190.317 14.672 189.869 14.812 189.469 15.052C189.069 15.268 188.741 15.544 188.485 15.88C188.237 16.216 188.053 16.6 187.933 17.032C187.813 17.456 187.753 17.916 187.753 18.412V25H184.849ZM202.431 25V10.432H196.839V7.72H210.915V10.432H205.323V25H202.431ZM211.159 25V12.04H213.715V15.196L213.403 14.788C213.563 14.356 213.775 13.964 214.039 13.612C214.311 13.252 214.635 12.956 215.011 12.724C215.331 12.508 215.683 12.34 216.067 12.22C216.459 12.092 216.859 12.016 217.267 11.992C217.675 11.96 218.071 11.976 218.455 12.04V14.74C218.071 14.628 217.627 14.592 217.123 14.632C216.627 14.672 216.179 14.812 215.779 15.052C215.379 15.268 215.051 15.544 214.795 15.88C214.547 16.216 214.363 16.6 214.243 17.032C214.123 17.456 214.063 17.916 214.063 18.412V25H211.159ZM223.584 25.36C222.648 25.36 221.856 25.184 221.208 24.832C220.56 24.472 220.068 23.996 219.732 23.404C219.404 22.812 219.24 22.16 219.24 21.448C219.24 20.824 219.344 20.264 219.552 19.768C219.76 19.264 220.08 18.832 220.512 18.472C220.944 18.104 221.504 17.804 222.192 17.572C222.712 17.404 223.32 17.252 224.016 17.116C224.72 16.98 225.48 16.856 226.296 16.744C227.12 16.624 227.98 16.496 228.876 16.36L227.844 16.948C227.852 16.052 227.652 15.392 227.244 14.968C226.836 14.544 226.148 14.332 225.18 14.332C224.596 14.332 224.032 14.468 223.488 14.74C222.944 15.012 222.564 15.48 222.348 16.144L219.708 15.316C220.028 14.22 220.636 13.34 221.532 12.676C222.436 12.012 223.652 11.68 225.18 11.68C226.332 11.68 227.344 11.868 228.216 12.244C229.096 12.62 229.748 13.236 230.172 14.092C230.404 14.548 230.544 15.016 230.592 15.496C230.64 15.968 230.664 16.484 230.664 17.044V25H228.132V22.192L228.552 22.648C227.968 23.584 227.284 24.272 226.5 24.712C225.724 25.144 224.752 25.36 223.584 25.36ZM224.16 23.056C224.816 23.056 225.376 22.94 225.84 22.708C226.304 22.476 226.672 22.192 226.944 21.856C227.224 21.52 227.412 21.204 227.508 20.908C227.66 20.54 227.744 20.12 227.76 19.648C227.784 19.168 227.796 18.78 227.796 18.484L228.684 18.748C227.812 18.884 227.064 19.004 226.44 19.108C225.816 19.212 225.28 19.312 224.832 19.408C224.384 19.496 223.988 19.596 223.644 19.708C223.308 19.828 223.024 19.968 222.792 20.128C222.56 20.288 222.38 20.472 222.252 20.68C222.132 20.888 222.072 21.132 222.072 21.412C222.072 21.732 222.152 22.016 222.312 22.264C222.472 22.504 222.704 22.696 223.008 22.84C223.32 22.984 223.704 23.056 224.16 23.056ZM242.272 25V18.76C242.272 18.352 242.244 17.9 242.188 17.404C242.132 16.908 242 16.432 241.792 15.976C241.592 15.512 241.288 15.132 240.88 14.836C240.48 14.54 239.936 14.392 239.248 14.392C238.88 14.392 238.516 14.452 238.156 14.572C237.796 14.692 237.468 14.9 237.172 15.196C236.884 15.484 236.652 15.884 236.476 16.396C236.3 16.9 236.212 17.548 236.212 18.34L234.496 17.608C234.496 16.504 234.708 15.504 235.132 14.608C235.564 13.712 236.196 13 237.028 12.472C237.86 11.936 238.884 11.668 240.1 11.668C241.06 11.668 241.852 11.828 242.476 12.148C243.1 12.468 243.596 12.876 243.964 13.372C244.332 13.868 244.604 14.396 244.78 14.956C244.956 15.516 245.068 16.048 245.116 16.552C245.172 17.048 245.2 17.452 245.2 17.764V25H242.272ZM233.284 25V12.04H235.864V16.06H236.212V25H233.284ZM252.856 25.36C251.256 25.36 249.956 25 248.956 24.28C247.956 23.56 247.348 22.548 247.132 21.244L250.084 20.788C250.236 21.428 250.572 21.932 251.092 22.3C251.612 22.668 252.268 22.852 253.06 22.852C253.756 22.852 254.292 22.716 254.668 22.444C255.052 22.164 255.244 21.784 255.244 21.304C255.244 21.008 255.172 20.772 255.028 20.596C254.892 20.412 254.588 20.236 254.116 20.068C253.644 19.9 252.92 19.688 251.944 19.432C250.856 19.144 249.992 18.836 249.352 18.508C248.712 18.172 248.252 17.776 247.972 17.32C247.692 16.864 247.552 16.312 247.552 15.664C247.552 14.856 247.764 14.152 248.188 13.552C248.612 12.952 249.204 12.492 249.964 12.172C250.724 11.844 251.62 11.68 252.652 11.68C253.66 11.68 254.552 11.836 255.328 12.148C256.112 12.46 256.744 12.904 257.224 13.48C257.704 14.056 258 14.732 258.112 15.508L255.16 16.036C255.088 15.484 254.836 15.048 254.404 14.728C253.98 14.408 253.412 14.228 252.7 14.188C252.02 14.148 251.472 14.252 251.056 14.5C250.64 14.74 250.432 15.08 250.432 15.52C250.432 15.768 250.516 15.98 250.684 16.156C250.852 16.332 251.188 16.508 251.692 16.684C252.204 16.86 252.964 17.076 253.972 17.332C255.004 17.596 255.828 17.9 256.444 18.244C257.068 18.58 257.516 18.984 257.788 19.456C258.068 19.928 258.208 20.5 258.208 21.172C258.208 22.476 257.732 23.5 256.78 24.244C255.836 24.988 254.528 25.36 252.856 25.36ZM266.584 25.36C265.32 25.36 264.26 25.06 263.404 24.46C262.548 23.86 261.904 23.044 261.472 22.012C261.04 20.972 260.824 19.808 260.824 18.52C260.824 17.216 261.04 16.048 261.472 15.016C261.904 13.984 262.536 13.172 263.368 12.58C264.208 11.98 265.244 11.68 266.476 11.68C267.7 11.68 268.76 11.98 269.656 12.58C270.56 13.172 271.26 13.984 271.756 15.016C272.252 16.04 272.5 17.208 272.5 18.52C272.5 19.816 272.256 20.98 271.768 22.012C271.28 23.044 270.592 23.86 269.704 24.46C268.816 25.06 267.776 25.36 266.584 25.36ZM260.332 30.76V12.04H262.888V21.136H263.248V30.76H260.332ZM266.14 22.768C266.892 22.768 267.512 22.58 268 22.204C268.488 21.828 268.848 21.32 269.08 20.68C269.32 20.032 269.44 19.312 269.44 18.52C269.44 17.736 269.32 17.024 269.08 16.384C268.84 15.736 268.468 15.224 267.964 14.848C267.46 14.464 266.82 14.272 266.044 14.272C265.308 14.272 264.708 14.452 264.244 14.812C263.78 15.164 263.436 15.66 263.212 16.3C262.996 16.932 262.888 17.672 262.888 18.52C262.888 19.36 262.996 20.1 263.212 20.74C263.436 21.38 263.784 21.88 264.256 22.24C264.736 22.592 265.364 22.768 266.14 22.768ZM280.389 25.36C279.093 25.36 277.961 25.068 276.993 24.484C276.025 23.9 275.273 23.096 274.737 22.072C274.209 21.04 273.945 19.856 273.945 18.52C273.945 17.16 274.217 15.968 274.761 14.944C275.305 13.92 276.061 13.12 277.029 12.544C277.997 11.968 279.117 11.68 280.389 11.68C281.693 11.68 282.829 11.972 283.797 12.556C284.765 13.14 285.517 13.948 286.053 14.98C286.589 16.004 286.857 17.184 286.857 18.52C286.857 19.864 286.585 21.052 286.041 22.084C285.505 23.108 284.753 23.912 283.785 24.496C282.817 25.072 281.685 25.36 280.389 25.36ZM280.389 22.648C281.541 22.648 282.397 22.264 282.957 21.496C283.517 20.728 283.797 19.736 283.797 18.52C283.797 17.264 283.513 16.264 282.945 15.52C282.377 14.768 281.525 14.392 280.389 14.392C279.613 14.392 278.973 14.568 278.469 14.92C277.973 15.264 277.605 15.748 277.365 16.372C277.125 16.988 277.005 17.704 277.005 18.52C277.005 19.776 277.289 20.78 277.857 21.532C278.433 22.276 279.277 22.648 280.389 22.648ZM289.021 25V12.04H291.577V15.196L291.265 14.788C291.425 14.356 291.637 13.964 291.901 13.612C292.173 13.252 292.497 12.956 292.873 12.724C293.193 12.508 293.545 12.34 293.929 12.22C294.321 12.092 294.721 12.016 295.129 11.992C295.537 11.96 295.933 11.976 296.317 12.04V14.74C295.933 14.628 295.489 14.592 294.985 14.632C294.489 14.672 294.041 14.812 293.641 15.052C293.241 15.268 292.913 15.544 292.657 15.88C292.409 16.216 292.225 16.6 292.105 17.032C291.985 17.456 291.925 17.916 291.925 18.412V25H289.021ZM305.723 25C304.867 25.16 304.027 25.228 303.203 25.204C302.387 25.188 301.655 25.04 301.007 24.76C300.359 24.472 299.867 24.02 299.531 23.404C299.235 22.844 299.079 22.272 299.063 21.688C299.047 21.104 299.039 20.444 299.039 19.708V8.44H301.919V19.54C301.919 20.06 301.923 20.516 301.931 20.908C301.947 21.3 302.031 21.62 302.183 21.868C302.471 22.348 302.931 22.616 303.563 22.672C304.195 22.728 304.915 22.696 305.723 22.576V25ZM296.687 14.308V12.04H305.723V14.308H296.687ZM67.494 45.18C66.63 45.18 65.89 44.992 65.274 44.616C64.658 44.236 64.184 43.708 63.852 43.032C63.524 42.356 63.36 41.572 63.36 40.68C63.36 39.788 63.524 39.004 63.852 38.328C64.184 37.652 64.658 37.126 65.274 36.75C65.89 36.37 66.63 36.18 67.494 36.18C68.49 36.18 69.32 36.43 69.984 36.93C70.648 37.426 71.114 38.096 71.382 38.94L69.924 39.342C69.756 38.778 69.47 38.338 69.066 38.022C68.662 37.702 68.138 37.542 67.494 37.542C66.914 37.542 66.43 37.672 66.042 37.932C65.658 38.192 65.368 38.558 65.172 39.03C64.98 39.498 64.882 40.048 64.878 40.68C64.878 41.312 64.974 41.864 65.166 42.336C65.362 42.804 65.654 43.168 66.042 43.428C66.43 43.688 66.914 43.818 67.494 43.818C68.138 43.818 68.662 43.658 69.066 43.338C69.47 43.018 69.756 42.578 69.924 42.018L71.382 42.42C71.114 43.264 70.648 43.936 69.984 44.436C69.32 44.932 68.49 45.18 67.494 45.18ZM75.5614 45.18C74.9134 45.18 74.3474 45.034 73.8634 44.742C73.3794 44.45 73.0034 44.048 72.7354 43.536C72.4714 43.02 72.3394 42.428 72.3394 41.76C72.3394 41.08 72.4754 40.484 72.7474 39.972C73.0194 39.46 73.3974 39.06 73.8814 38.772C74.3654 38.484 74.9254 38.34 75.5614 38.34C76.2134 38.34 76.7814 38.486 77.2654 38.778C77.7494 39.07 78.1254 39.474 78.3934 39.99C78.6614 40.502 78.7954 41.092 78.7954 41.76C78.7954 42.432 78.6594 43.026 78.3874 43.542C78.1194 44.054 77.7434 44.456 77.2594 44.748C76.7754 45.036 76.2094 45.18 75.5614 45.18ZM75.5614 43.824C76.1374 43.824 76.5654 43.632 76.8454 43.248C77.1254 42.864 77.2654 42.368 77.2654 41.76C77.2654 41.132 77.1234 40.632 76.8394 40.26C76.5554 39.884 76.1294 39.696 75.5614 39.696C75.1734 39.696 74.8534 39.784 74.6014 39.96C74.3534 40.132 74.1694 40.374 74.0494 40.686C73.9294 40.994 73.8694 41.352 73.8694 41.76C73.8694 42.388 74.0114 42.89 74.2954 43.266C74.5834 43.638 75.0054 43.824 75.5614 43.824ZM82.6397 45V36.36H84.0857V43.644H87.9017V45H82.6397ZM92.4114 45C91.9834 45.08 91.5634 45.114 91.1514 45.102C90.7434 45.094 90.3774 45.02 90.0534 44.88C89.7294 44.736 89.4834 44.51 89.3154 44.202C89.1674 43.922 89.0894 43.636 89.0814 43.344C89.0734 43.052 89.0694 42.722 89.0694 42.354V36.72H90.5094V42.27C90.5094 42.53 90.5114 42.758 90.5154 42.954C90.5234 43.15 90.5654 43.31 90.6414 43.434C90.7854 43.674 91.0154 43.808 91.3314 43.836C91.6474 43.864 92.0074 43.848 92.4114 43.788V45ZM87.8934 39.654V38.52H92.4114V39.654H87.8934ZM96.0747 45.18C95.4787 45.18 94.9587 45.03 94.5147 44.73C94.0707 44.43 93.7267 44.022 93.4827 43.506C93.2387 42.99 93.1167 42.408 93.1167 41.76C93.1167 41.104 93.2387 40.52 93.4827 40.008C93.7307 39.492 94.0807 39.086 94.5327 38.79C94.9847 38.49 95.5167 38.34 96.1287 38.34C96.7447 38.34 97.2607 38.49 97.6767 38.79C98.0967 39.086 98.4147 39.492 98.6307 40.008C98.8467 40.524 98.9547 41.108 98.9547 41.76C98.9547 42.404 98.8467 42.986 98.6307 43.506C98.4147 44.022 98.0927 44.43 97.6647 44.73C97.2367 45.03 96.7067 45.18 96.0747 45.18ZM96.2967 43.884C96.6847 43.884 96.9967 43.796 97.2327 43.62C97.4727 43.44 97.6467 43.19 97.7547 42.87C97.8667 42.55 97.9227 42.18 97.9227 41.76C97.9227 41.336 97.8667 40.966 97.7547 40.65C97.6467 40.33 97.4767 40.082 97.2447 39.906C97.0127 39.726 96.7127 39.636 96.3447 39.636C95.9567 39.636 95.6367 39.732 95.3847 39.924C95.1327 40.112 94.9467 40.368 94.8267 40.692C94.7067 41.012 94.6467 41.368 94.6467 41.76C94.6467 42.156 94.7047 42.516 94.8207 42.84C94.9407 43.16 95.1227 43.414 95.3667 43.602C95.6107 43.79 95.9207 43.884 96.2967 43.884ZM97.9227 45V40.452H97.7427V36.36H99.2007V45H97.9227Z" fill="white"/>
<path d="M37.972 6V3.572H37.04V3.12H39.386V3.572H38.454V6H37.972ZM39.6258 6V3.12H40.0598L41.0558 5.16L42.0518 3.12H42.4858V6H42.0358V4.154L41.1518 6H40.9598L40.0778 4.154V6H39.6258Z" fill="white"/>
<path d="M22.4122 31.9052C22.5017 32.0253 22.449 32.205 22.3053 32.2441C22.2844 32.25 22.2661 32.2514 22.2482 32.2475C20.8109 31.9345 19.3572 31.6796 17.9455 31.2744C16.0132 30.7197 14.0935 30.1054 12.2061 29.4116C10.7089 28.8613 9.22078 28.2451 7.814 27.4946C5.3779 26.1953 3.21377 24.5449 1.65988 22.1669C0.56668 20.4936 -0.0929156 18.6943 0.0106452 16.6992C0.0963007 15.0517 0.639753 13.5053 1.54325 12.1103C2.07122 11.2954 2.56192 10.4472 3.16489 9.69136C4.5799 7.91695 6.29204 6.4521 8.24905 5.33541C9.71584 4.49849 11.2465 3.73628 12.8251 3.14986C14.5508 2.50826 16.3558 2.07369 18.1425 1.61226C19.5246 1.25533 20.9222 0.93355 22.3304 0.71187C23.6791 0.499468 25.0486 0.399859 26.4128 0.314898C28.6752 0.174761 30.941 -0.00639135 33.2043 -4.36969e-05C35.4454 0.00630396 37.6855 0.221636 39.9256 0.352007C40.1961 0.369097 40.2823 0.725542 40.0519 0.869585C39.9842 0.912066 39.9227 0.943804 39.8578 0.963335C38.3557 1.41988 36.8154 1.76998 35.3486 2.32125C31.7937 3.65767 28.2005 4.93013 24.919 6.89058C23.3447 7.83101 21.7845 8.83345 20.3662 9.99214C18.249 11.7221 16.4725 13.7915 15.5849 16.4565C15.0149 18.1689 15.0008 19.9389 15.3991 21.7168C16.0422 24.5859 17.5715 26.9502 19.5023 29.0712" fill="#EDF2FB"/>
<path d="M20.5878 18.0947C20.4983 17.9746 20.551 17.7949 20.6947 17.7559C20.7155 17.75 20.7339 17.7485 20.7518 17.7524C22.1891 18.0654 23.6428 18.3203 25.0545 18.7256C26.9868 19.2803 28.9065 19.8945 30.7939 20.5884C32.2911 21.1387 33.7792 21.7549 35.186 22.5054C37.6221 23.8047 39.7862 25.4551 41.3401 27.833C42.4333 29.5059 43.0929 31.3052 42.9894 33.3003C42.9037 34.9478 42.3602 36.4941 41.4567 37.8892C40.9288 38.7041 40.4381 39.5522 39.8351 40.3081C38.4201 42.0825 36.7079 43.5474 34.7509 44.6641C33.2842 45.501 31.7535 46.2632 30.1749 46.8496C28.4492 47.4912 26.6442 47.9258 24.8575 48.3872C23.4754 48.7441 22.0778 49.0659 20.6696 49.2876C19.3209 49.5 17.9513 49.5996 16.5871 49.6846C14.3248 49.8252 12.0595 50.0063 9.79569 50C7.55461 49.9937 5.31451 49.7783 3.0744 49.6479C2.80388 49.6309 2.71774 49.2744 2.94809 49.1304C3.01584 49.0879 3.0773 49.0562 3.14215 49.0366C4.64426 48.5801 6.18461 48.23 7.6514 47.6787C11.2063 46.3423 14.7995 45.0698 18.081 43.1094C19.6553 42.1689 21.2154 41.1665 22.6338 40.0078C24.751 38.2778 26.5275 36.2085 27.4151 33.5435C27.9851 31.8311 27.9992 30.061 27.6009 28.2832C26.9577 25.4141 25.4285 23.0498 23.4977 20.9287" fill="#EDF2FB"/>
</svg>
