<svg width="401" height="50" viewBox="0 0 401 50" fill="none" xmlns="http://www.w3.org/2000/svg">
<path d="M69.648 22.984H64.032V25.648H66.84V31.816H69.648V22.984ZM69.648 30.568H67.008C65.904 31.432 64.608 32.272 63.528 32.944L64.944 35.944C66.24 34.888 67.32 33.976 68.376 33.04C69.936 34.912 71.928 35.608 74.88 35.728C77.76 35.848 82.608 35.8 85.512 35.656C85.632 34.792 86.112 33.4 86.424 32.728C83.184 32.992 77.736 33.064 74.928 32.944C72.432 32.848 70.608 32.152 69.648 30.568ZM64.08 15.904C65.496 16.984 67.224 18.592 67.944 19.72L70.248 17.824C69.408 16.696 67.656 15.184 66.216 14.176L64.08 15.904ZM74.112 21.616H82.104V23.704H74.112V21.616ZM71.448 19.408V25.888H84.912V19.408H71.448ZM70.704 15.712V18.112H85.728V15.712H70.704ZM76.632 13.648V32.296H79.416V13.648H76.632ZM75.864 25.144C74.664 26.992 72.312 28.816 70.032 29.728C70.632 30.232 71.472 31.24 71.856 31.912C74.28 30.688 76.608 28.36 77.952 25.888L75.864 25.144ZM79.752 25.12L77.784 25.96C79.272 28.24 81.816 30.616 84.144 31.84C84.576 31.144 85.44 30.136 86.088 29.584C83.76 28.672 81.144 26.896 79.752 25.12ZM92.52 20.368V22.648H109.2V20.368H92.52ZM92.712 27.376V29.632H105.888V27.376H92.712ZM95.784 18.784V26.416H105.72V18.784H102.888V24.232H98.496V18.784H95.784ZM105.144 27.376V27.736C103.2 31.576 97.8 33.28 91.656 33.808C92.112 34.408 92.64 35.488 92.856 36.208C99.6 35.368 105.408 33.376 108 28.168L106.2 27.256L105.696 27.376H105.144ZM97.632 29.128L95.16 30.016C97.848 33.592 102.288 35.512 108.12 36.232C108.48 35.512 109.2 34.36 109.8 33.76C104.28 33.28 99.792 31.816 97.632 29.128ZM97.776 13.624V17.224H100.776V13.624H97.776ZM90.576 15.784V18.352H109.32V15.784H90.576ZM89.16 15.784V22.552C89.16 26.08 89.016 31.096 87 34.504C87.672 34.816 88.872 35.608 89.376 36.088C91.56 32.368 91.92 26.464 91.92 22.552V15.784H89.16ZM115.992 18.496V21.016H127.824V18.496H115.992ZM116.616 23.296V25.72H127.32V23.296H116.616ZM115.728 28.576V30.928H128.232V28.576H115.728ZM120.552 19.288V29.824H123.216V19.288H120.552ZM123.984 26.488C124.68 27.232 125.496 28.288 125.88 28.96L127.8 27.88C127.392 27.232 126.528 26.224 125.808 25.528L123.984 26.488ZM111.864 14.56V36.136H114.792V17.2H129.048V36.136H132.144V14.56H111.864ZM113.448 32.296V34.936H130.464V32.296H113.448ZM135.12 14.584V36.112H137.88V17.152H141.168V14.584H135.12ZM140.544 14.584V15.4C140.16 16.912 139.368 20.032 138.648 22.144C140.112 23.848 140.424 25.408 140.424 26.56C140.424 27.256 140.28 27.784 139.968 28C139.8 28.12 139.536 28.192 139.272 28.192C138.984 28.216 138.624 28.192 138.168 28.168C138.6 28.864 138.84 29.944 138.84 30.64C139.464 30.64 140.064 30.64 140.544 30.592C141.12 30.496 141.6 30.328 142.032 30.064C142.872 29.488 143.208 28.432 143.208 26.872C143.208 25.456 142.872 23.752 141.312 21.856C142.056 20.008 142.896 17.584 143.568 15.544L141.504 14.488L141.048 14.584H140.544ZM144.72 15.112V17.8H155.328V15.112H144.72ZM143.64 20.848V23.536H156.648V20.848H143.64ZM148.344 22.168V32.824C148.344 33.088 148.248 33.184 147.936 33.184C147.6 33.184 146.592 33.184 145.632 33.16C146.016 34.024 146.376 35.272 146.448 36.136C148.08 36.136 149.28 36.064 150.144 35.584C151.056 35.104 151.272 34.264 151.272 32.848V22.168H148.344ZM152.064 26.44C153.096 28.936 154.056 32.128 154.296 34.12L156.912 33.16C156.6 31.168 155.544 28.072 154.44 25.648L152.064 26.44ZM144.672 25.744C144.096 28.216 143.112 30.832 141.864 32.512C142.488 32.824 143.616 33.568 144.12 33.976C145.368 32.104 146.568 29.152 147.264 26.344L144.672 25.744ZM163.632 24.544H158.088V27.184H160.824V32.152H163.632V24.544ZM163.632 30.592H161.064C159.936 31.48 158.664 32.344 157.584 32.992L158.976 35.92C160.248 34.888 161.352 33.952 162.408 33.016C163.944 34.888 165.96 35.584 168.912 35.728C171.792 35.824 176.688 35.776 179.592 35.632C179.736 34.792 180.168 33.448 180.504 32.776C177.264 33.04 171.768 33.112 168.936 33.016C166.416 32.896 164.64 32.2 163.632 30.592ZM159.096 15.52C160.44 16.36 162.096 17.656 162.84 18.568L164.88 16.624C164.064 15.712 162.36 14.512 161.016 13.768L159.096 15.52ZM158.112 20.368C159.528 21.16 161.256 22.408 162.048 23.296L164.064 21.28C163.176 20.368 161.4 19.24 160.008 18.52L158.112 20.368ZM166.464 14.8V17.488H178.752V14.8H166.464ZM164.856 20.152V22.84H180.36V20.152H164.856ZM169.296 21.544C168.792 23.8 167.76 26.824 166.848 28.816L169.176 29.632C170.208 27.808 171.432 24.952 172.464 22.456L169.296 21.544ZM165 28.432L165.456 31.264C168.744 30.952 173.352 30.52 177.696 30.04V27.472C173.088 27.856 168.144 28.24 165 28.432ZM173.76 24.592C175.44 26.848 177.144 29.848 177.744 31.816L180.288 30.496C179.616 28.504 177.768 25.624 176.088 23.488L173.76 24.592ZM181.44 16.288V18.856H189.48V16.288H181.44ZM185.448 20.368V36.112H187.872V20.368H185.448ZM181.344 29.584L181.92 32.248C184.152 31.744 186.984 31.12 189.624 30.472L189.432 28.072C186.48 28.648 183.408 29.248 181.344 29.584ZM182.088 26.656C182.088 26.176 183.6 25.288 183.6 25.288V25.24C184.824 22.312 186.072 17.992 186.624 14.008L184.008 13.648C183.744 17.296 182.736 21.4 182.4 22.432C182.04 23.512 181.752 24.208 181.272 24.376C181.56 24.976 181.968 26.176 182.088 26.656ZM182.088 26.656C182.304 26.416 183.144 26.272 183.864 26.272H189.36V23.68H183.288L182.088 24.328V26.656ZM191.688 19.312V21.592H201.312V19.312H191.688ZM190.272 22.696V36.064H192.552V24.88H195.432V22.696H190.272ZM194.856 22.696V33.52C194.856 33.736 194.808 33.784 194.592 33.808C194.376 33.808 193.776 33.808 193.152 33.784C193.44 34.408 193.704 35.368 193.752 36.016C194.88 36.016 195.72 35.992 196.344 35.608C196.992 35.224 197.136 34.576 197.136 33.544V22.696H194.856ZM192.024 26.104V28.144H196.584V26.104H192.024ZM191.976 29.368V31.408H196.536V29.368H191.976ZM197.952 23.368V32.152H200.064V23.368H197.952ZM201 22.432V33.304C201 33.592 200.904 33.664 200.616 33.664C200.28 33.664 199.272 33.664 198.216 33.64C198.528 34.288 198.816 35.272 198.888 35.896C200.424 35.896 201.504 35.848 202.248 35.488C203.016 35.128 203.208 34.48 203.208 33.328V22.432H201ZM196.344 13.456C194.688 15.856 191.544 17.968 188.664 19.192C189.336 19.792 190.08 20.68 190.488 21.352C193.536 19.816 196.68 17.368 198.672 14.512L196.344 13.456ZM197.544 14.512L195.36 15.4C197.472 18.112 199.776 19.816 202.608 21.28C202.944 20.536 203.688 19.648 204.336 19.048C201.72 18.016 199.44 16.672 197.544 14.512ZM209.328 15.976V36.112H212.16V15.976H209.328ZM205.152 20.608V23.344H215.784V20.608H205.152ZM209.352 21.784C208.44 24.424 206.472 28.024 204.576 29.992C205.056 30.736 205.728 31.96 205.992 32.776C208.032 30.376 210 26.032 211.104 22.624L209.352 21.784ZM213.84 13.72C211.704 14.68 208.176 15.52 205.008 16.024C205.32 16.624 205.704 17.608 205.824 18.232C209.184 17.8 213.024 17.008 215.856 15.88L213.84 13.72ZM212.016 23.824L210.528 25.12C211.488 26.2 213.384 28.552 214.2 29.824L215.904 27.664C215.328 27.04 212.784 24.424 212.016 23.824ZM218.736 14.152C218.16 20.272 216.72 28.048 215.328 33.064L218.112 33.64C219.552 28.696 221.136 21.136 222.024 14.68L218.736 14.152ZM213.36 32.296L214.032 35.344C217.2 34.936 221.472 34.336 225.504 33.712L225.432 31.072C220.992 31.576 216.288 32.056 213.36 32.296ZM221.568 26.128C222.936 29.392 224.184 33.568 224.496 36.16L227.544 35.224C227.16 32.56 225.768 28.504 224.328 25.336L221.568 26.128ZM237.624 14.2C237.456 17.344 237.792 28.312 228.144 33.664C229.128 34.336 230.064 35.224 230.568 35.968C240.384 29.944 240.696 18.232 240.912 14.2H237.624ZM240.816 14.824L238.032 15.112C238.224 17.584 238.68 30.808 249.024 35.944C249.456 35.152 250.32 34.192 251.232 33.496C241.392 28.888 240.888 16.912 240.816 14.824ZM252.456 16.528V19.216H273.864V16.528H252.456ZM258.936 25.168V27.568H269.376V25.168H258.936ZM256.8 21.112V36.136H259.656V23.632H268.944V21.112H256.8ZM268.368 21.112V32.992C268.368 33.328 268.224 33.448 267.84 33.448C267.432 33.448 266.016 33.472 264.768 33.4C265.152 34.144 265.536 35.368 265.656 36.16C267.6 36.16 268.968 36.136 269.928 35.704C270.912 35.248 271.176 34.456 271.176 33.04V21.112H268.368ZM259.896 13.6C258.696 18.28 256.008 23.44 251.736 26.248C252.312 26.8 253.224 27.832 253.632 28.48C258.312 25.216 261.192 19.696 262.872 14.272L259.896 13.6ZM258.936 29.128V31.528H269.376V29.128H258.936ZM286.8 19.096V21.448H295.08V19.096H286.8ZM282.672 32.992L283.632 35.8C285.912 35.296 288.864 34.648 291.648 34L291.432 31.504C288.216 32.08 284.856 32.68 282.672 32.992ZM285.168 14.704V33.664H287.976V14.704H285.168ZM286.8 14.704V17.176H293.544V23.44H286.8V25.912H296.376V14.704H286.8ZM291.816 24.28L289.416 24.664C290.448 29.968 292.32 34.048 296.184 36.088C296.592 35.344 297.432 34.216 298.056 33.664C294.528 32.104 292.68 28.552 291.816 24.28ZM295.272 26.08C294.384 27.28 292.824 28.792 291.672 29.728L293.472 31.12C294.672 30.256 296.208 28.912 297.528 27.664L295.272 26.08ZM276.432 14.656V36.184H279.12V17.224H282.432V14.656H276.432ZM281.64 14.656V15.52C281.256 17.056 280.44 20.464 279.744 22.624C281.16 24.256 281.52 25.744 281.52 26.872C281.52 27.544 281.4 28.024 281.088 28.24C280.872 28.384 280.632 28.432 280.368 28.456C280.056 28.456 279.72 28.456 279.264 28.408C279.672 29.128 279.888 30.256 279.912 30.976C280.488 31 281.112 31 281.568 30.928C282.12 30.856 282.6 30.688 282.984 30.4C283.776 29.848 284.136 28.84 284.136 27.232C284.136 25.84 283.824 24.184 282.24 22.312C282.984 20.44 283.848 17.776 284.496 15.688L282.552 14.56L282.144 14.656H281.64ZM307.8 22.384C306.768 25.816 304.824 30.232 303.096 33.136L305.76 33.976C307.536 31.216 309.672 26.992 311.256 23.224L307.8 22.384ZM300.312 32.248L300.696 35.296C305.256 35.056 311.928 34.696 318.096 34.264L318.168 31.456C311.88 31.768 304.848 32.104 300.312 32.248ZM312.456 27.688C314.472 30.328 316.8 33.976 317.808 36.28L320.784 34.696C319.632 32.392 317.376 28.984 315.264 26.392L312.456 27.688ZM305.256 14.176C304.008 17.512 301.728 20.8 299.232 22.768C300.024 23.248 301.416 24.304 302.04 24.904C304.488 22.6 307.008 18.88 308.544 15.088L305.256 14.176ZM314.928 14.2L312.048 15.376C313.824 18.712 316.584 22.504 318.84 24.928C319.392 24.16 320.496 23.008 321.288 22.408C319.08 20.392 316.344 17.032 314.928 14.2ZM323.616 15.064V17.8H341.472V15.064H323.616ZM323.832 19.528V22.024H338.04V19.528H323.832ZM340.464 15.064V32.464C340.464 32.92 340.296 33.04 339.864 33.04C339.384 33.064 337.824 33.064 336.456 32.992C336.864 33.808 337.296 35.248 337.392 36.112C339.576 36.112 341.088 36.04 342.096 35.56C343.128 35.056 343.416 34.168 343.416 32.512V15.064H340.464ZM325.08 23.8V33.712H327.888V23.8H325.08ZM327.576 23.8V26.296H333.96V29.488H327.576V31.96H336.792V23.8H327.576Z" fill="white"/>
<path d="M37.972 6V3.572H37.04V3.12H39.386V3.572H38.454V6H37.972ZM39.6258 6V3.12H40.0598L41.0558 5.16L42.0518 3.12H42.4858V6H42.0358V4.154L41.1518 6H40.9598L40.0778 4.154V6H39.6258Z" fill="white"/>
<path d="M22.4122 31.9052C22.5017 32.0253 22.449 32.205 22.3053 32.2441C22.2844 32.25 22.2661 32.2514 22.2482 32.2475C20.8109 31.9345 19.3572 31.6796 17.9455 31.2744C16.0132 30.7197 14.0935 30.1054 12.2061 29.4116C10.7089 28.8613 9.22078 28.2451 7.814 27.4946C5.3779 26.1953 3.21377 24.5449 1.65988 22.1669C0.56668 20.4936 -0.0929156 18.6943 0.0106452 16.6992C0.0963007 15.0517 0.639753 13.5053 1.54325 12.1103C2.07121 11.2954 2.56192 10.4472 3.16489 9.69136C4.5799 7.91695 6.29204 6.4521 8.24905 5.33541C9.71584 4.49849 11.2465 3.73628 12.8251 3.14986C14.5508 2.50826 16.3558 2.07369 18.1425 1.61226C19.5246 1.25533 20.9222 0.93355 22.3304 0.71187C23.6791 0.499468 25.0487 0.399859 26.4128 0.314898C28.6752 0.174761 30.941 -0.00639135 33.2043 -4.36969e-05C35.4454 0.00630396 37.6855 0.221636 39.9256 0.352007C40.1961 0.369097 40.2823 0.725542 40.0519 0.869585C39.9842 0.912066 39.9227 0.943804 39.8578 0.963335C38.3557 1.41988 36.8154 1.76998 35.3486 2.32125C31.7937 3.65767 28.2005 4.93013 24.919 6.89058C23.3447 7.83101 21.7845 8.83345 20.3662 9.99214C18.249 11.7221 16.4725 13.7915 15.5849 16.4565C15.0149 18.1689 15.0008 19.9389 15.3991 21.7168C16.0422 24.5859 17.5715 26.9502 19.5023 29.0712" fill="#EDF2FB"/>
<path d="M20.5879 18.0947C20.4983 17.9746 20.5511 17.7949 20.6948 17.7559C20.7156 17.75 20.734 17.7485 20.7519 17.7524C22.1892 18.0654 23.6429 18.3203 25.0545 18.7256C26.9868 19.2803 28.9066 19.8945 30.7939 20.5884C32.2912 21.1387 33.7793 21.7549 35.1861 22.5054C37.6222 23.8047 39.7863 25.4551 41.3402 27.833C42.4334 29.5059 43.093 31.3052 42.9894 33.3003C42.9038 34.9478 42.3603 36.4941 41.4568 37.8892C40.9288 38.7041 40.4381 39.5522 39.8352 40.3081C38.4202 42.0825 36.708 43.5474 34.751 44.6641C33.2842 45.501 31.7535 46.2632 30.175 46.8496C28.4493 47.4912 26.6442 47.9258 24.8576 48.3872C23.4755 48.7441 22.0779 49.0659 20.6696 49.2876C19.3209 49.5 17.9514 49.5996 16.5872 49.6846C14.3248 49.8252 12.0596 50.0063 9.79575 50C7.55468 49.9937 5.31457 49.7783 3.07446 49.6479C2.80394 49.6309 2.7178 49.2744 2.94815 49.1304C3.0159 49.0879 3.07736 49.0562 3.14221 49.0366C4.64433 48.5801 6.18467 48.23 7.65146 47.6787C11.2064 46.3423 14.7996 45.0698 18.0811 43.1094C19.6553 42.1689 21.2155 41.1665 22.6339 40.0078C24.7511 38.2778 26.5276 36.2085 27.4151 33.5435C27.9852 31.8311 27.9992 30.061 27.601 28.2832C26.9578 25.4141 25.4286 23.0498 23.4977 20.9287" fill="#EDF2FB"/>
</svg>
