<svg width="72" height="72" viewBox="0 0 72 72" fill="none" xmlns="http://www.w3.org/2000/svg">
<path d="M36 42H39C42.3 42 45 39.3 45 36V6H18C13.5 6 9.57003 8.49 7.53003 12.15" stroke="#1C3654" stroke-width="4.5" stroke-linecap="round" stroke-linejoin="round"/>
<path d="M6 51C6 55.98 10.02 60 15 60H18C18 56.7 20.7 54 24 54C27.3 54 30 56.7 30 60H42C42 56.7 44.7 54 48 54C51.3 54 54 56.7 54 60H57C61.98 60 66 55.98 66 51V42H57C55.35 42 54 40.65 54 39V30C54 28.35 55.35 27 57 27H60.87L55.74 18.03C55.2114 17.1121 54.4511 16.349 53.535 15.8173C52.6189 15.2855 51.5792 15.0037 50.52 15H45V36C45 39.3 42.3 42 39 42H36" stroke="#1C3654" stroke-width="4.5" stroke-linecap="round" stroke-linejoin="round"/>
<path d="M6 24H24M6 33H18M6 42H12M24 66C25.5913 66 27.1174 65.3679 28.2426 64.2426C29.3679 63.1174 30 61.5913 30 60C30 58.4087 29.3679 56.8826 28.2426 55.7574C27.1174 54.6321 25.5913 54 24 54C22.4087 54 20.8826 54.6321 19.7574 55.7574C18.6321 56.8826 18 58.4087 18 60C18 61.5913 18.6321 63.1174 19.7574 64.2426C20.8826 65.3679 22.4087 66 24 66V66ZM48 66C49.5913 66 51.1174 65.3679 52.2426 64.2426C53.3679 63.1174 54 61.5913 54 60C54 58.4087 53.3679 56.8826 52.2426 55.7574C51.1174 54.6321 49.5913 54 48 54C46.4087 54 44.8826 54.6321 43.7574 55.7574C42.6321 56.8826 42 58.4087 42 60C42 61.5913 42.6321 63.1174 43.7574 64.2426C44.8826 65.3679 46.4087 66 48 66ZM66 36V42H57C55.35 42 54 40.65 54 39V30C54 28.35 55.35 27 57 27H60.87L66 36Z" stroke="#1C3654" stroke-width="4.5" stroke-linecap="round" stroke-linejoin="round"/>
</svg>
